<?xml version="1.0" encoding="utf-8"?>
<!-- Generator: Adobe Illustrator 17.0.0, SVG Export Plug-In . SVG Version: 6.00 Build 0)  -->
<!DOCTYPE svg PUBLIC "-//W3C//DTD SVG 1.1//EN" "http://www.w3.org/Graphics/SVG/1.1/DTD/svg11.dtd">
<svg version="1.1" fill="#e55342" xmlns="http://www.w3.org/2000/svg" xmlns:xlink="http://www.w3.org/1999/xlink" x="0px" y="0px"
	 width="627px" height="626px" viewBox="0 0 627 626" enable-background="new 0 0 627 626" xml:space="preserve">
<g>
	<g>
		<path d="M1,166c2.863-11.254,7.123-21.668,15.695-30.057c17.99-17.607,48.094-19.568,66.892-2.745
			c16.725,14.967,32.315,31.216,48.218,47.087c54.097,53.989,108.12,108.053,162.146,162.113
			c6.562,6.566,12.974,13.282,20.099,20.589c9.683-9.874,18.674-19.192,27.826-28.351c59.789-59.834,119.602-119.642,179.436-179.43
			c7.062-7.057,14.015-14.259,21.495-20.855c28.908-25.491,74.569-10.87,83.222,28.335c0.248,1.122,0.644,2.211,0.97,3.315
			c0,4.333,0,8.667,0,13c-3.087,16.392-13.355,28.058-24.756,39.424c-94.346,94.06-188.489,188.324-282.653,282.566
			c-1.736,1.738-2.98,3.967-4.893,6.563c-10.894-11.025-20.531-20.877-30.275-30.622
			c-88.664-88.678-177.315-177.369-266.071-265.954C9.3,201.944,3.965,191.188,1,179C1,174.667,1,170.333,1,166z"/>
	</g>
</g>
</svg>
