<svg xmlns="http://www.w3.org/2000/svg" viewBox="0 0 2514 528" width="2514" height="528">
	<style>
		tspan { white-space:pre }
		.shp0 { fill: #000000 } 
	</style>
	<g id="Layer">
		<path id="Layer" class="shp0" d="M522.3,10c-13.2,2.8 -21.3,13.1 -21.3,27c0,5.6 2.5,14.4 5.2,18.5c1.1,1.6 10.2,11.1 20.3,21c20.8,20.5 23.6,24.5 24.2,34.3c0.8,12 -5.3,19.2 -16,19.2c-6.1,0 -10.6,-1.9 -14,-5.9c-2.8,-3.4 -6.7,-14.4 -6.7,-19.2c0,-3.4 -0.5,-3.5 -7.8,-1.2l-5.4,1.7l0.7,5.5c1.8,14 10,25.4 20.4,28.5c6.8,2 17.2,2.1 23.7,0.1c6,-1.8 12.7,-7.2 15.7,-12.9c1.9,-3.5 2.2,-5.7 2.2,-14.6c0,-9.8 -0.2,-11 -3.2,-17c-4.1,-8.4 -9.3,-14.4 -26.1,-30.1c-7.5,-7.1 -14.8,-14.7 -16.4,-17c-8.7,-13 -1.4,-27.9 13.7,-27.9c5.9,0 10.7,2 13.2,5.6c2.4,3.4 5.3,12.5 5.3,16.6c0,3.2 1.4,3.5 8.5,1.6l4.6,-1.2l-0.6,-4.1c-3.1,-19.9 -10.9,-28 -28,-29c-4.4,-0.2 -9.9,0 -12.2,0.5z" />
		<path id="Layer" class="shp0" d="M823.3,10c-10.6,2.2 -17.1,8.4 -20.6,19.5c-2.1,6.7 -2.2,8.5 -2.2,45.5c0,37 0.1,38.8 2.2,45.6c2.7,8.5 8.3,15.4 14.5,17.9c2.5,1 8.2,2 13.4,2.3c23.3,1.2 32.6,-8.6 34.1,-36.1l0.6,-10.7h-7h-7.1l-0.4,11.7c-0.4,13.6 -2.1,18.3 -7.8,22.1c-3,2 -4.5,2.3 -10.5,2c-11.3,-0.5 -15.6,-5 -17.7,-18.4c-1.5,-10.2 -0.5,-75 1.3,-79.7c1.9,-5 6.1,-9.3 10.5,-10.7c5,-1.7 13.9,-0.8 17.2,1.7c5.2,3.9 6.5,7.6 7,20l0.5,11.3h6.8h6.9v-6.3c0,-20.1 -6.5,-33.1 -18.3,-36.7c-5.4,-1.6 -18,-2.2 -23.4,-1z" />
		<path id="Layer" class="shp0" d="M1602.3,10c-13.2,2.8 -21.3,13.1 -21.3,27c0,5.6 2.5,14.4 5.2,18.5c1.1,1.6 10.2,11.1 20.3,21c20.8,20.5 23.6,24.5 24.2,34.3c0.8,12 -5.3,19.2 -16,19.2c-6.1,0 -10.6,-1.9 -14,-5.9c-2.8,-3.4 -6.7,-14.4 -6.7,-19.2c0,-3.4 -0.5,-3.5 -7.8,-1.2l-5.4,1.7l0.7,5.5c1.8,14 10,25.4 20.4,28.5c6.8,2 17.2,2.1 23.7,0.1c6,-1.8 12.7,-7.2 15.7,-12.9c1.9,-3.5 2.2,-5.7 2.2,-14.6c0,-9.8 -0.2,-11 -3.2,-17c-4.1,-8.4 -9.3,-14.4 -26.1,-30.1c-7.5,-7.1 -14.8,-14.7 -16.4,-17c-8.7,-13 -1.4,-27.9 13.7,-27.9c5.9,0 10.7,2 13.2,5.6c2.4,3.4 5.3,12.5 5.3,16.6c0,3.2 1.4,3.5 8.5,1.6l4.6,-1.2l-0.6,-4.1c-3.1,-19.9 -10.9,-28 -28,-29c-4.4,-0.2 -9.9,0 -12.2,0.5z" />
		<path id="Layer" class="shp0" d="M1798.3,10c-10.6,2.2 -17.1,8.4 -20.6,19.5c-2.1,6.7 -2.2,8.5 -2.2,45.5c0,37 0.1,38.8 2.2,45.6c2.7,8.5 8.3,15.4 14.5,17.9c2.5,1 8.2,2 13.4,2.3c23.3,1.2 32.6,-8.6 34.1,-36.1l0.6,-10.7h-7h-7.1l-0.4,11.7c-0.4,13.6 -2.1,18.3 -7.8,22.1c-3,2 -4.5,2.3 -10.5,2c-11.3,-0.5 -15.6,-5 -17.7,-18.4c-1.5,-10.2 -0.5,-75 1.3,-79.7c1.9,-5 6.1,-9.3 10.5,-10.7c5,-1.7 13.9,-0.8 17.2,1.7c5.2,3.9 6.5,7.6 7,20l0.5,11.3h6.8h6.9v-6.3c0,-20.1 -6.5,-33.1 -18.3,-36.7c-5.4,-1.6 -18,-2.2 -23.4,-1z" />
		<path id="Layer" class="shp0" d="M1931.9,11.5c6.8,2.4 10.7,5.9 14,12.8c4.4,9 5.1,15.7 5.1,50.7c0,34 -0.7,41.3 -4.7,50.3c-4.8,10.8 -14.1,15.7 -29.3,15.7c-14.9,0 -24.5,-5 -29.4,-15.3c-4.3,-9.1 -4.8,-15.4 -4.4,-54.8c0.4,-40.3 0.8,-42.8 7.1,-51.1c3.9,-5.1 8.4,-7.9 15.7,-9.5c6.8,-1.6 20,-1 25.9,1.2zM1900.8,28c-3.2,6.4 -3.8,13.8 -3.8,47c0,40.5 1.1,47.1 8.4,52.3c4.6,3.2 15.8,3.7 21.4,0.8c8.8,-4.5 10.2,-11.8 10.2,-53.1c0,-41.4 -1.5,-48.6 -10.5,-53c-9,-4.4 -21.9,-1.3 -25.7,6z" />
		<path id="Layer" class="shp0" d="M71,75v64h7h7v-21.8l0.1,-21.7l4.9,-9l4.9,-9l2.2,5c1.2,2.8 7.3,16.5 13.5,30.5l11.2,25.5l7.1,0.3c3.9,0.2 7.1,0.1 7.1,-0.1c0,-0.2 -7,-16.4 -15.5,-35.8c-8.5,-19.5 -15.5,-36 -15.5,-36.7c0,-0.8 5.6,-13.2 12.5,-27.6c6.9,-14.5 12.5,-26.6 12.5,-27c0,-0.3 -3,-0.6 -6.8,-0.6h-6.7l-15.7,31.2l-15.7,31.3v-31.3l-0.1,-31.2h-7h-7z" />
		<path id="Layer" class="shp0" d="M179.5,53.8l14.5,42.9v21.1v21.2h7h7v-21.3v-21.2l13.5,-41.2c7.4,-22.7 13.8,-41.9 14.1,-42.8c0.6,-1.4 -0.3,-1.6 -6.6,-1.3l-7.3,0.3l-10.1,32.7c-5.5,18 -10.3,32.8 -10.6,32.8c-0.3,0 -5.4,-14.7 -11.2,-32.8l-10.6,-32.7l-7.1,-0.3l-7.1,-0.3z" />
		<path id="Layer" class="shp0" d="M276,75v64h7h7v-64v-64h-7h-7z" />
		<path id="Layer" class="shp0" d="M333.1,14.7c0.4,2.1 7.1,30.7 14.9,63.6c7.7,33 14,60.1 14,60.3c0,0.3 3,0.4 6.7,0.2l6.7,-0.3l13.7,-60.5c7.6,-33.3 14,-62 14.4,-63.8l0.6,-3.3l-6.8,0.3l-6.8,0.3l-10.5,49.2c-5.8,27.1 -10.7,49.3 -11,49.3c-0.3,0 -5.4,-21.5 -11.3,-47.8c-6,-26.2 -11.1,-48.5 -11.3,-49.5c-0.4,-1.4 -1.7,-1.7 -7.4,-1.7h-6.8z" />
		<path id="Layer" class="shp0" d="M607,10.9l22.3,0.3c20.6,0.3 22.5,0.5 26.3,2.5c5.4,2.9 8.7,7 11.5,14c1.8,4.7 2.2,7.8 2.2,16.8c0,16.5 -4.1,25.3 -14.5,31.1c-5,2.7 -6.1,2.9 -19.5,3.2l-14.3,0.4v59.8h-14zM633.4,21.2l-12.4,-0.4v48.5l11.3,-0.5c13.8,-0.5 17,-1.9 20.7,-9.3c2.2,-4.4 2.5,-6.3 2.5,-15.5c0,-11.8 -1.7,-16.7 -6.8,-20.4c-2.4,-1.8 -4.6,-2.1 -15.3,-2.4z" />
		<path id="Layer" class="shp0" d="M712,75v64h24h24v-5v-5h-17h-17v-25.5v-25.5h14h14v-5v-5h-14h-14v-23.5v-23.5h17h17v-5v-5h-24h-24z" />
		<path id="Layer" class="shp0" d="M911,75v64h7h7v-64v-64h-7h-7z" />
		<path id="Layer" class="shp0" d="M1001.2,11h7.3l10.9,51.2c6,28.2 12.1,57.1 13.6,64.1l2.7,12.8l-14.2,-0.6l-6,-33l-14.2,-0.3l-14.1,-0.3l-1.1,4.9c-0.5,2.7 -2,10.3 -3.2,17l-2.3,12.2h-6.8c-3.7,0 -6.8,-0.4 -6.8,-0.8c0,-1.1 25.9,-124.3 26.5,-126c0.3,-0.8 2.8,-1.2 7.7,-1.2zM1013.6,95.5l-6.1,-31c-4.1,-20.4 -6.4,-30.1 -6.8,-28.5c-1.9,7.4 -11.8,59.3 -11.4,59.6c0.2,0.3 5.8,0.3 12.4,0.2z" />
		<path id="Layer" class="shp0" d="M1078,75v64h25h25v-5v-5h-18h-18v-59v-59h-7h-7z" />
		<path id="Layer" class="shp0" d="M1167,75v64h7h7v-64v-64h-7h-7z" />
		<path id="Layer" class="shp0" d="M1227,16v5h19.6c15.3,0 19.5,0.3 19.1,1.2c-0.3,0.7 -9.8,25.1 -21.1,54.1c-16.9,43.3 -20.6,53.7 -20.6,57.8v4.9h29h29v-5v-5h-21.5c-11.8,0 -21.5,-0.4 -21.5,-0.9c0,-0.5 9.7,-25.7 21.5,-56c11.8,-30.4 21.5,-56.5 21.5,-58.1v-3h-27.5h-27.5z" />
		<path id="Layer" class="shp0" d="M1323,75v64h24h24v-5v-5h-17h-17v-25.5v-25.5h14h14v-5v-5h-14h-14v-23.5v-23.5h17h17v-5v-5h-24h-24z" />
		<path id="Layer" class="shp0" d="M1414,10.9l21.3,0.3c21,0.3 21.3,0.3 27,3.2c6.6,3.2 10.6,8 13.4,15.9c1.6,4.7 1.8,9.2 1.8,44.2c0,35.2 -0.2,39.5 -1.8,44.4c-2.7,8.1 -6.7,13.3 -12.9,16.6l-5.3,3l-21.7,0.3l-21.8,0.3zM1437.9,21h-9.9v108h10.5c11.9,0 15.7,-1.1 19.7,-5.8c5.1,-6.1 5.3,-7.9 5.3,-47.7c0,-28.1 -0.3,-38.1 -1.4,-41.7c-1.5,-5.3 -5.9,-10 -11,-11.7c-1.9,-0.6 -7.8,-1.1 -13.2,-1.1z" />
		<path id="Layer" class="shp0" d="M1687,75v64h24h24v-5v-5h-17h-17v-25.5v-25.5h14h14v-5v-5h-14h-14v-23.5v-23.5h17h17v-5v-5h-24h-24z" />
		<path id="Layer" class="shp0" d="M1997,75v64h6h6l0.2,-47.1l0.3,-47.1l19.1,46.8l19.1,46.9l5.6,0.3l5.7,0.3v-64.1v-64h-6.5h-6.5l-0.2,46.2l-0.3,46.3l-18.9,-46.3l-19,-46.2h-5.3h-5.3z" />
		<path id="Layer" class="shp0" d="M2107,10.9l21.3,0.3c21,0.3 21.3,0.3 27,3.2c6.6,3.2 10.6,8 13.4,15.9c1.6,4.7 1.8,9.2 1.8,44.2c0,35.2 -0.2,39.5 -1.8,44.4c-2.7,8.1 -6.7,13.3 -12.9,16.6l-5.3,3l-21.7,0.3l-21.8,0.3zM2130.9,21h-9.9v108h10.5c11.9,0 15.7,-1.1 19.7,-5.8c5.1,-6.1 5.3,-7.9 5.3,-47.7c0,-28.1 -0.3,-38.1 -1.4,-41.7c-1.5,-5.3 -5.9,-10 -11,-11.7c-1.9,-0.6 -7.8,-1.1 -13.2,-1.1z" />
		<path id="Layer" class="shp0" d="M2244.2,11h7.3l10.9,51.2c6,28.2 12.1,57.1 13.6,64.1l2.7,12.8l-14.2,-0.6l-6,-33l-14.2,-0.3l-14.1,-0.3l-1.1,4.9c-0.5,2.7 -2,10.3 -3.2,17l-2.3,12.2h-6.8c-3.7,0 -6.8,-0.4 -6.8,-0.8c0,-1.1 25.9,-124.3 26.5,-126c0.3,-0.8 2.8,-1.2 7.7,-1.2zM2256.6,95.5l-6.1,-31c-4.1,-20.4 -6.4,-30.1 -6.8,-28.5c-1.9,7.4 -11.8,59.3 -11.4,59.6c0.2,0.3 5.8,0.3 12.4,0.2z" />
		<path id="Layer" class="shp0" d="M2321,11h19.8c27.5,0 33.1,2 38.9,13.7c2.4,5.1 2.8,7.2 3.2,16.9c0.2,8.3 -0.1,12.6 -1.3,16.8c-2,6.7 -7.2,13 -12.2,14.6c-2.3,0.8 -3.4,1.7 -3,2.6c0.9,2.2 18.6,62.1 18.6,62.8c0,0.3 -3,0.6 -6.8,0.6h-6.7l-7.3,-24.3c-4,-13.3 -8.1,-27.2 -9.3,-31l-2,-6.7h-17.9v62h-14zM2346.3,21h-11.3v46.2l10.8,-0.4c13.6,-0.4 17.6,-2.2 21.2,-9.4c2.1,-4.1 2.5,-6.3 2.5,-13.9c0,-11.1 -2.8,-17.9 -8.5,-20.7c-2.7,-1.4 -6,-1.8 -14.7,-1.8z" />
		<path id="Layer" class="shp0" d="M2435.5,53.8l14.5,42.9v21.1v21.2h7h7v-21.3v-21.2l13.5,-41.2c7.4,-22.7 13.8,-41.9 14.1,-42.8c0.6,-1.4 -0.3,-1.6 -6.6,-1.3l-7.3,0.3l-10.1,32.7c-5.5,18 -10.3,32.8 -10.6,32.8c-0.3,0 -5.4,-14.7 -11.2,-32.8l-10.6,-32.7l-7.1,-0.3l-7.1,-0.3z" />
		<path id="Layer" class="shp0" d="M360.3,222c-13.2,2.8 -21.3,13.1 -21.3,27c0,5.6 2.5,14.4 5.2,18.5c1.1,1.6 10.2,11.1 20.3,21c20.8,20.5 23.6,24.5 24.2,34.3c0.8,12 -5.3,19.2 -16,19.2c-6.1,0 -10.6,-1.9 -14,-5.9c-2.8,-3.4 -6.7,-14.4 -6.7,-19.2c0,-3.4 -0.5,-3.5 -7.8,-1.2l-5.4,1.7l0.7,5.5c1.8,14 10,25.4 20.4,28.5c6.8,2 17.2,2.1 23.7,0.1c6,-1.8 12.7,-7.2 15.7,-12.9c1.9,-3.5 2.2,-5.7 2.2,-14.6c0,-9.8 -0.2,-11 -3.2,-17c-4.1,-8.4 -9.3,-14.4 -26.1,-30.1c-7.5,-7.1 -14.8,-14.7 -16.4,-17c-8.7,-13 -1.4,-27.9 13.7,-27.9c5.9,0 10.7,2 13.2,5.6c2.4,3.4 5.3,12.5 5.3,16.6c0,3.2 1.4,3.5 8.5,1.6l4.6,-1.2l-0.6,-4.1c-3.1,-19.9 -10.9,-28 -28,-29c-4.4,-0.2 -9.9,0 -12.2,0.5z" />
		<path id="Layer" class="shp0" d="M566.3,222c-10.6,2.2 -17.1,8.4 -20.6,19.5c-2.1,6.7 -2.2,8.5 -2.2,45.5c0,37 0.1,38.8 2.2,45.6c2.7,8.5 8.3,15.4 14.5,17.9c2.5,1 8.2,2 13.4,2.3c23.3,1.2 32.6,-8.6 34.1,-36.1l0.6,-10.7h-7h-7.1l-0.4,11.7c-0.4,13.6 -2.1,18.3 -7.8,22.1c-3,2 -4.5,2.3 -10.5,2c-11.3,-0.5 -15.6,-5 -17.7,-18.4c-1.5,-10.2 -0.5,-75 1.3,-79.7c1.9,-5 6.1,-9.3 10.5,-10.7c5,-1.7 13.9,-0.8 17.2,1.7c5.2,3.9 6.5,7.6 7,20l0.5,11.3h6.8h6.9v-6.3c0,-20.1 -6.5,-33.1 -18.3,-36.7c-5.4,-1.6 -18,-2.2 -23.4,-1z" />
		<path id="Layer" class="shp0" d="M924.9,223.5c6.8,2.4 10.7,5.9 14,12.8c4.4,9 5.1,15.7 5.1,50.7c0,34 -0.7,41.3 -4.7,50.3c-4.8,10.8 -14.1,15.7 -29.3,15.7c-14.9,0 -24.5,-5 -29.4,-15.3c-4.3,-9.1 -4.8,-15.4 -4.4,-54.8c0.4,-40.3 0.8,-42.8 7.1,-51.1c3.9,-5.1 8.4,-7.9 15.7,-9.5c6.8,-1.6 20,-1 25.9,1.2zM893.8,240c-3.2,6.4 -3.8,13.8 -3.8,47c0,40.5 1.1,47.1 8.4,52.3c4.6,3.2 15.8,3.7 21.4,0.8c8.8,-4.5 10.2,-11.8 10.2,-53.1c0,-41.4 -1.5,-48.6 -10.5,-53c-9,-4.4 -21.9,-1.3 -25.7,6z" />
		<path id="Layer" class="shp0" d="M1622.5,222c-9.5,2 -16,7 -19.4,14.9c-3.7,8.6 -4.3,17 -3.9,54.3c0.4,32.8 0.5,35.7 2.5,41.6c2.9,8.7 6.5,13.4 12.6,16.8c4.4,2.4 6.6,2.9 14.5,3.2c11.2,0.5 16.4,-1.1 21.5,-6.8c3.3,-3.6 3.6,-3.7 4.1,-1.7c0.3,1.2 0.6,3.2 0.6,4.4c0,2.1 0.5,2.3 5,2.3h5v-31v-31h-16h-16v5v5h9.5h9.5v9.2c0,24.7 -5.3,33.8 -19.7,33.8c-11,0 -16.2,-5.3 -18.3,-18.8c-0.8,-4.7 -1,-19.4 -0.8,-41.5c0.4,-36.9 0.6,-38.6 6.1,-44.6c6.4,-6.9 20.1,-6.8 26.6,0.2c2.8,3.1 5.1,12 5.1,19.9v5.8h6.5h6.5v-7.8c0,-16.7 -5.9,-27.7 -17,-31.7c-5.3,-2 -18.8,-2.8 -24.5,-1.5z" />
		<path id="Layer" class="shp0" d="M1827.3,222c-13.2,2.8 -21.3,13.1 -21.3,27c0,5.6 2.5,14.4 5.2,18.5c1.1,1.6 10.2,11.1 20.3,21c20.8,20.5 23.6,24.5 24.2,34.3c0.8,12 -5.3,19.2 -16,19.2c-6.1,0 -10.6,-1.9 -14,-5.9c-2.8,-3.4 -6.7,-14.4 -6.7,-19.2c0,-3.4 -0.5,-3.5 -7.8,-1.2l-5.4,1.7l0.7,5.5c1.8,14 10,25.4 20.4,28.5c6.8,2 17.2,2.1 23.7,0.1c6,-1.8 12.7,-7.2 15.7,-12.9c1.9,-3.5 2.2,-5.7 2.2,-14.6c0,-9.8 -0.2,-11 -3.2,-17c-4.1,-8.4 -9.3,-14.4 -26.1,-30.1c-7.5,-7.1 -14.8,-14.7 -16.4,-17c-8.7,-13 -1.4,-27.9 13.7,-27.9c5.9,0 10.7,2 13.2,5.6c2.4,3.4 5.3,12.5 5.3,16.6c0,3.2 1.4,3.5 8.5,1.6l4.6,-1.2l-0.6,-4.1c-3.1,-19.9 -10.9,-28 -28,-29c-4.4,-0.2 -9.9,0 -12.2,0.5z" />
		<path id="Layer" class="shp0" d="M1951.3,222c-10.6,2.2 -17.1,8.4 -20.6,19.5c-2.1,6.7 -2.2,8.5 -2.2,45.5c0,37 0.1,38.8 2.2,45.6c2.7,8.5 8.3,15.4 14.5,17.9c2.5,1 8.2,2 13.4,2.3c23.3,1.2 32.6,-8.6 34.1,-36.1l0.6,-10.7h-7h-7.1l-0.4,11.7c-0.4,13.6 -2.1,18.3 -7.8,22.1c-3,2 -4.5,2.3 -10.5,2c-11.3,-0.5 -15.6,-5 -17.7,-18.4c-1.5,-10.2 -0.5,-75 1.3,-79.7c1.9,-5 6.1,-9.3 10.5,-10.7c5,-1.7 13.9,-0.8 17.2,1.7c5.2,3.9 6.5,7.6 7,20l0.5,11.3h6.8h6.9v-6.3c0,-20.1 -6.5,-33.1 -18.3,-36.7c-5.4,-1.6 -18,-2.2 -23.4,-1z" />
		<path id="Layer" class="shp0" d="M2236.9,223.5c6.8,2.4 10.7,5.9 14,12.8c4.4,9 5.1,15.7 5.1,50.7c0,34 -0.7,41.3 -4.7,50.3c-4.8,10.8 -14.1,15.7 -29.3,15.7c-14.9,0 -24.5,-5 -29.4,-15.3c-4.3,-9.1 -4.8,-15.4 -4.4,-54.8c0.4,-40.3 0.8,-42.8 7.1,-51.1c3.9,-5.1 8.4,-7.9 15.7,-9.5c6.8,-1.6 20,-1 25.9,1.2zM2205.8,240c-3.2,6.4 -3.8,13.8 -3.8,47c0,40.5 1.1,47.1 8.4,52.3c4.6,3.2 15.8,3.7 21.4,0.8c8.8,-4.5 10.2,-11.8 10.2,-53.1c0,-41.4 -1.5,-48.6 -10.5,-53c-9,-4.4 -21.9,-1.3 -25.7,6z" />
		<path id="Layer" class="shp0" d="M2367.9,223.5c6.8,2.4 10.7,5.9 14,12.8c4.4,9 5.1,15.7 5.1,50.7c0,34 -0.7,41.3 -4.7,50.3c-4.8,10.8 -14.1,15.7 -29.3,15.7c-14.9,0 -24.5,-5 -29.4,-15.3c-4.3,-9.1 -4.8,-15.4 -4.4,-54.8c0.4,-40.3 0.8,-42.8 7.1,-51.1c3.9,-5.1 8.4,-7.9 15.7,-9.5c6.8,-1.6 20,-1 25.9,1.2zM2336.8,240c-3.2,6.4 -3.8,13.8 -3.8,47c0,40.5 1.1,47.1 8.4,52.3c4.6,3.2 15.8,3.7 21.4,0.8c8.8,-4.5 10.2,-11.8 10.2,-53.1c0,-41.4 -1.5,-48.6 -10.5,-53c-9,-4.4 -21.9,-1.3 -25.7,6z" />
		<path id="Layer" class="shp0" d="M64,223.2c-0.3,1.2 -2.9,106.1 -3,115.5v12.3h5.9h5.9l0.7,-36.8c0.4,-20.2 1,-40.7 1.4,-45.6l0.6,-8.9l6.4,26.9c3.5,14.8 8.3,35.3 10.8,45.6l4.5,18.8h4.9c4.7,0 4.8,-0.1 5.8,-3.7c0.6,-2 5.7,-23 11.3,-46.6l10.3,-43l0.7,25.4c0.4,14 1,35 1.4,46.6l0.6,21.3h5.9h5.9v-3.3c0,-1.7 -0.7,-27.5 -1.5,-57.2c-0.8,-29.7 -1.5,-57.1 -1.5,-60.8v-6.8l-7.2,0.3l-7.3,0.3l-11.9,51.7c-6.6,28.5 -12.2,51.8 -12.5,51.8c-0.3,0 -5.1,-19.7 -10.5,-43.8c-5.4,-24 -10.8,-47.4 -11.8,-52l-2,-8.2h-6.9c-3.8,0 -6.9,0.1 -6.9,0.2z" />
		<path id="Layer" class="shp0" d="M209.2,275.7c0.4,46.3 0.6,53.4 2.1,57.9c2.6,7.9 7,13.2 13.5,16.2c5.2,2.5 6.8,2.7 17.7,2.7c14,0 18,-1.1 24.1,-6.7c5.3,-4.9 8.3,-11.7 9.4,-22.1c0.6,-4.5 1,-29 1,-54.5v-46.2h-7h-6.9l-0.3,51.7l-0.3,51.8l-2.7,5.6c-3.9,7.8 -8.4,10.2 -18.1,9.7c-8.8,-0.4 -12.9,-2.9 -16.1,-9.7c-2,-4.5 -2.1,-6 -2.4,-56.9l-0.3,-52.2h-7h-7z" />
		<path id="Layer" class="shp0" d="M464,287v64h7h7v-64v-64h-7h-7z" />
		<path id="Layer" class="shp0" d="M752,223h19.4c20.9,0 24.9,0.7 31.3,5.6c1.8,1.4 4.6,4.9 6.1,7.7c2.5,4.9 2.7,6 2.7,18.2c0,11.7 -0.2,13.5 -2.4,17.8c-1.4,3 -3.8,5.8 -6.2,7.4l-3.9,2.6l2.7,1.4c4.6,2.3 8,6.2 10.4,11.7c1.9,4.2 2.4,7.3 2.7,17.3c0.5,15.5 -1.7,24 -7.9,30.8c-6.2,6.8 -9.6,7.5 -34.1,7.5h-20.8zM776.3,233.2l-10.3,-0.4v45.5l10.8,-0.5c13.2,-0.5 16.6,-2 20.1,-9.2c1.9,-3.8 2.4,-6.4 2.4,-13c0.1,-10.6 -2.7,-16.9 -8.8,-20c-3,-1.6 -6.5,-2.2 -14.2,-2.4zM776.3,288h-10.3v53.2l12.4,-0.4c14.5,-0.4 16.5,-1.3 20.6,-9.3c2.1,-4.3 2.4,-6.3 2.5,-16c0,-10.3 -0.2,-11.4 -3,-17c-2.4,-4.7 -3.9,-6.4 -7.4,-8.2c-3.8,-2 -5.9,-2.3 -14.8,-2.3z" />
		<path id="Layer" class="shp0" d="M1036.2,223h7.3l10.9,51.2c6,28.2 12.1,57.1 13.6,64.1l2.7,12.8l-14.2,-0.6l-6,-33l-14.2,-0.3l-14.1,-0.3l-1.1,4.9c-0.5,2.7 -2,10.3 -3.2,17l-2.3,12.2h-6.8c-3.7,0 -6.8,-0.4 -6.8,-0.8c0,-1.1 25.9,-124.3 26.5,-126c0.3,-0.8 2.8,-1.2 7.7,-1.2zM1048.6,307.5l-6.1,-31c-4.1,-20.4 -6.4,-30.1 -6.8,-28.5c-1.9,7.4 -11.8,59.3 -11.4,59.6c0.2,0.3 5.8,0.3 12.4,0.2z" />
		<path id="Layer" class="shp0" d="M1132,223h19.8c27.5,0 33.1,2 38.9,13.7c2.4,5.1 2.8,7.2 3.2,16.9c0.2,8.3 -0.1,12.6 -1.3,16.8c-2,6.7 -7.2,13 -12.2,14.6c-2.3,0.8 -3.4,1.7 -3,2.6c0.9,2.2 18.6,62.1 18.6,62.8c0,0.3 -3,0.6 -6.8,0.6h-6.7l-7.3,-24.3c-4,-13.3 -8.1,-27.2 -9.3,-31l-2,-6.7h-17.9v62h-14zM1157.3,233h-11.3v46.2l10.8,-0.4c13.6,-0.4 17.6,-2.2 21.2,-9.4c2.1,-4.1 2.5,-6.3 2.5,-13.9c0,-11.1 -2.8,-17.9 -8.5,-20.7c-2.7,-1.4 -6,-1.8 -14.7,-1.8z" />
		<path id="Layer" class="shp0" d="M1260,222.9l21.3,0.3c21,0.3 21.3,0.3 27,3.2c6.6,3.2 10.6,8 13.4,15.9c1.6,4.7 1.8,9.2 1.8,44.2c0,35.2 -0.2,39.5 -1.8,44.4c-2.7,8.1 -6.7,13.3 -12.9,16.6l-5.3,3l-21.7,0.3l-21.8,0.3zM1283.9,233h-9.9v108h10.5c11.9,0 15.7,-1.1 19.7,-5.8c5.1,-6.1 5.3,-7.9 5.3,-47.7c0,-28.1 -0.3,-38.1 -1.4,-41.7c-1.5,-5.3 -5.9,-10 -11,-11.7c-1.9,-0.6 -7.8,-1.1 -13.2,-1.1z" />
		<path id="Layer" class="shp0" d="M1390,287v64h7h7v-64v-64h-7h-7z" />
		<path id="Layer" class="shp0" d="M1472,287v64h6h6l0.2,-47.1l0.3,-47.1l19.1,46.8l19.1,46.9l5.6,0.3l5.7,0.3v-64.1v-64h-6.5h-6.5l-0.2,46.2l-0.3,46.3l-18.9,-46.3l-19,-46.2h-5.3h-5.3z" />
		<path id="Layer" class="shp0" d="M2057,287v64h7h7v-31v-31h19h19v31v31h7h7v-64v-64h-7h-7v28v28h-19h-19v-28v-28h-7h-7z" />
		<path id="Layer" class="shp0" d="M2452,287v64h25h25v-5v-5h-18h-18v-59v-59h-7h-7z" />
		<path id="Layer" class="shp0" d="M680.3,444.5c-12.1,3.3 -21.7,11.3 -27,22.5c-1.7,3.6 -4.1,7.4 -5.3,8.5c-2.2,2 -3.8,2 -273.4,2.3c-149.1,0.2 -273.1,0 -275.5,-0.3c-3.1,-0.5 -5.4,-1.7 -7.9,-4.1c-4.1,-4 -6.8,-4.9 -11.6,-4c-8.1,1.5 -11.5,12.3 -5.8,18.6c4,4.6 9.8,5.2 15.2,1.6c2.3,-1.5 6.5,-3.1 9.3,-3.7c3.4,-0.6 103.8,-0.8 276.3,-0.7c224.2,0.3 271.4,0.5 272.7,1.6c0.9,0.8 2.3,3.9 3.2,7c2.3,7.9 5.4,12.8 11.7,18.9c9.1,8.5 18.9,12.3 32,12.3c20.5,0 41.1,-8.8 46.8,-20c4.8,-9.3 3.4,-18.7 -4,-26c-6.2,-6.3 -12.6,-8.5 -24.5,-8.5c-4.9,0 -10.8,0.6 -13.1,1.2c-5.6,1.8 -12.5,6.6 -15.3,10.9c-4.9,7.1 -2.6,19.4 3.6,19.4c2.4,0 2.5,-0.2 1.8,-3.7c-1.4,-7.8 -0.3,-10.3 7.2,-15.2c13.4,-8.9 33.7,-7.5 37.9,2.5c2.1,5.1 0.4,9.6 -6.2,16.1c-12.6,12.6 -37.7,18.1 -52.6,11.5c-23.1,-10.2 -23,-33.9 0.2,-45.7c12.9,-6.5 33.3,-9.9 46.6,-7.6c15.6,2.7 63.5,17.8 103.9,32.7c12.1,4.4 13.7,4.8 22.6,4.8c10.5,0.1 12.9,-0.8 12.9,-5c0,-1.6 -0.8,-2.8 -2.4,-3.6c-2,-0.9 -3.1,-0.7 -6.1,1.1c-2,1.1 -5.2,2.1 -7,2.1c-4.3,0 -21.7,-6.4 -57,-21.1c-60.3,-24.9 -70.5,-28 -92.9,-27.8c-6.2,0 -13.4,0.7 -16.3,1.4z" />
		<path id="Layer" class="shp0" d="M1334.5,445.4c-6.2,2.8 -9.5,8.5 -9.5,16.4c0.1,7.6 2.8,11.8 15.8,24.6c6.7,6.5 12.8,13.3 13.7,15.1c2.8,6 1.7,14.1 -2.4,17.2c-2.7,2.1 -10.4,1.6 -13,-0.8c-2.5,-2.3 -5.1,-7.7 -5.1,-10.6c0,-3.5 -1.6,-4.6 -5.5,-3.9l-3.8,0.7l0.6,5.1c0.9,6.9 4.8,13.3 9.9,15.9c5.6,2.8 18.2,2.5 22.4,-0.7c5.1,-3.8 6.8,-7 7.2,-14c0.7,-10.6 -1.1,-13.9 -15.2,-27.9c-6.7,-6.6 -12.9,-13.1 -13.8,-14.5c-1.8,-2.5 -2.4,-9.3 -1.2,-12.5c1.8,-4.7 12.9,-6.1 16.9,-2.1c2.3,2.3 4.5,8.1 4.5,11.9c0,1.6 0.5,1.7 3.3,1.2c4.8,-1.1 5,-1.4 4.3,-6.1c-0.9,-7.1 -4.1,-12.3 -8.9,-14.5c-5,-2.2 -15.7,-2.5 -20.2,-0.5z" />
		<path id="Layer" class="shp0" d="M1593.2,449.7c4.2,4.6 4.8,9.4 4.8,35.8c0,20.1 -0.3,26.1 -1.5,29.6c-3.2,8.8 -8.4,11.9 -20.2,11.9c-10.1,0 -14.6,-2.4 -18.2,-9.5l-2.6,-4.9v-27.1c0,-27 0,-27.1 2.5,-32c1.9,-3.8 3.6,-5.5 7,-7.3c8.3,-4.2 23,-2.4 28.2,3.5zM1569.8,452.5c-4.6,2.5 -5.3,6.7 -5.3,32c0,25.7 0.5,29.7 4.2,33.1c3.4,3.2 11.8,3.4 15.5,0.4c4,-3.1 4.8,-8.8 4.8,-33.1c0,-24 -0.7,-28.7 -4.8,-32c-3,-2.3 -10.4,-2.5 -14.4,-0.4z" />
		<path id="Layer" class="shp0" d="M1857.3,445.5c-12.4,2.2 -27.5,7.7 -72.8,26.5c-35.4,14.6 -52.7,21 -57,21c-1.8,0 -5,-1 -7,-2.1c-3,-1.8 -4.1,-2 -6.1,-1.1c-1.6,0.8 -2.4,2 -2.4,3.6c0,4.2 2.4,5.1 12.9,5c8.9,0 10.5,-0.4 22.6,-4.8c40.4,-14.9 88.3,-30 103.9,-32.7c13.3,-2.3 33.7,1.1 46.6,7.6c23.2,11.8 23.3,35.5 0.2,45.7c-10,4.5 -27.6,3.3 -40.2,-2.8c-8.3,-3.9 -17.1,-12.2 -18.9,-17.6c-4.9,-14.7 20.8,-21.2 38.2,-9.7c7.5,4.9 8.6,7.4 7.2,15.2c-0.7,3.5 -0.6,3.7 1.8,3.7c6.2,0 8.5,-12.3 3.6,-19.4c-2.8,-4.3 -9.7,-9.1 -15.3,-10.9c-6.3,-1.9 -21.1,-1.5 -27.5,0.7c-14.4,5 -20.7,19.7 -14.1,32.6c5.7,11.2 26.3,20 46.8,20c13.1,0 22.9,-3.8 32,-12.3c6.3,-6.1 9.4,-11 11.7,-18.9c0.9,-3.1 2.3,-6.2 3.2,-7c1.3,-1.1 48.5,-1.3 272.7,-1.6c172.5,-0.1 272.9,0.1 276.3,0.7c2.8,0.6 7,2.2 9.3,3.7c5.4,3.6 11.2,3 15.3,-1.6c5.6,-6.3 2.2,-17.1 -5.9,-18.6c-4.8,-0.9 -7.5,0 -11.6,4c-2.5,2.4 -4.8,3.6 -7.9,4.1c-2.4,0.3 -126.4,0.5 -275.5,0.3c-269.6,-0.3 -271.2,-0.3 -273.4,-2.3c-1.2,-1.1 -3.6,-4.9 -5.3,-8.5c-1.8,-3.8 -5.2,-8.7 -8.2,-11.6c-9.3,-9.3 -18.5,-12.5 -36.5,-12.3c-6.3,0 -14.7,0.7 -18.7,1.4z" />
		<path id="Layer" class="shp0" d="M970.6,465.7c-0.3,11.5 -0.9,29.7 -1.2,40.5l-0.6,19.8h3.9h4l0.6,-12.8c0.4,-7 0.7,-19.9 0.8,-28.7l0.1,-16l2.3,9c1.3,4.9 4.4,17.9 7,28.7l4.7,19.8h3.4c3,0 3.4,-0.3 4.3,-3.8c0.5,-2 3.6,-14.7 6.8,-28.2l6,-24.5l0.8,28.2l0.8,28.3h3.9h4l-0.6,-31.7c-0.3,-17.5 -0.9,-35.8 -1.2,-40.6l-0.6,-8.8l-4.6,0.3l-4.5,0.3l-7.3,31.5c-4,17.3 -7.4,32.1 -7.6,32.9c-0.2,0.8 -3.7,-13.5 -7.8,-31.7l-7.5,-33.2h-4.6h-4.7z" />
		<path id="Layer" class="shp0" d="M1100.5,447.2c0.3,1.3 4.4,18.7 9,38.8c4.7,20.1 8.8,37.3 9.1,38.2c0.4,1.4 1.6,1.8 5,1.8c2.4,0 4.4,-0.3 4.4,-0.6c0,-0.4 15.4,-69.3 17.5,-78.2c0.5,-2 0.2,-2.2 -4,-2.2c-3.8,0 -4.5,0.3 -5,2.2c-0.3,1.3 -3.4,15.5 -6.8,31.5l-6.3,29.3l-7,-31.3l-7.1,-31.2l-4.7,-0.3c-4.4,-0.3 -4.6,-0.2 -4.1,2z" />
		<path id="Layer" class="shp0" d="M1224,485.5v40.5h16h16v-3v-3h-11.5h-11.5v-37.5v-37.5h-4.5h-4.5z" />
		<path id="Layer" class="shp0" d="M1273.5,472.6l9.5,27.6v12.9v12.9h4.5h4.5v-13.8v-13.7l8.9,-26.8l8.9,-26.7h-4.8h-4.8l-3.2,10.2c-7.9,25.8 -9.7,31.1 -10.2,30.2c-0.3,-0.5 -3.4,-9.8 -6.8,-20.7l-6.4,-19.7h-4.7h-4.8z" />
		<path id="Layer" class="shp0" d="M1385,485.5v40.5h15.5h15.5v-3v-3h-11h-11v-16.5v-16.5h9h9v-3v-3h-9h-9v-15v-15h11h11v-3v-3h-15.5h-15.5z" />
		<path id="Layer" class="shp0" d="M1436,485.4v40.6h4h4l0.2,-29l0.3,-29l11.7,28.7l11.6,28.8l3.6,0.3l3.6,0.3v-40.5v-40.6h-4h-4l-0.2,28.5l-0.3,28.6l-11.6,-28.3l-11.5,-28.3l-3.7,-0.3l-3.7,-0.3z" />
		<path id="Layer" class="shp0" d="M1499,485.5v40.5h4.5h4.5v-13.5c0,-13.3 0.1,-13.6 3.1,-19.1c1.7,-3 3.3,-5.4 3.4,-5.2c0.1,0.2 3.9,8.7 8.5,19l8.2,18.8h4.8h4.8l-9.9,-22.5c-5.4,-12.4 -9.9,-23 -9.9,-23.5c0,-0.5 2.5,-6.3 5.6,-12.7c3.1,-6.5 6.7,-14.2 8,-17.1l2.4,-5.2h-4.8h-4.7l-9.7,19.2l-9.7,19.3v-19.3l-0.1,-19.2h-4.5h-4.5z" />
	</g>
	<path id="Layer" class="shp0" d="M1041,521.5v6.5h7h7v-6.5v-6.5h-7h-7z" />
	<path id="Layer" class="shp0" d="M1149,521.5v6.5h6.5h6.5v-6.5v-6.5h-6.5h-6.5z" />
</svg>