<svg xmlns="http://www.w3.org/2000/svg" viewBox="0 0 2514 528" width="2514" height="528">
	<style>
		tspan { white-space:pre }
		.shp0 { fill: #000000 } 
	</style>
	<g id="Layer">
		<path id="Layer" class="shp0" d="M438.5,8.9c-9.4,2.4 -14.9,7.4 -18.6,16.8c-2.4,5.8 -2.4,6 -2.4,48.3c0,42.3 0,42.5 2.4,48.3c2.8,7 7,12.1 12.5,15c3.5,1.9 5.7,2.2 15.6,2.2c9.9,0 12.1,-0.3 15.6,-2.2c9.2,-4.9 13.4,-14 14.2,-31.1l0.5,-11.2h-4.5h-4.5l-0.6,10.2c-0.6,11.5 -2.5,17.9 -6.4,22c-6.8,7.1 -24,6.1 -30.1,-1.7c-5.2,-6.6 -5.7,-11 -5.7,-51.5c0,-41.1 0.5,-45.3 6.1,-51.9c5.3,-6.3 20.2,-7.8 27.5,-2.8c5.8,3.9 8.9,13.2 8.9,26.3v6.4h4.5h4.5v-8c0,-17.9 -5.2,-29.3 -15.5,-33.6c-4.4,-1.8 -19.2,-2.8 -24,-1.5z" />
		<path id="Layer" class="shp0" d="M848.1,9.5c-10.1,2.9 -15.7,9.3 -18.5,21.5c-2.2,9.3 -2.3,76.5 -0.1,85.8c2.6,10.8 6.6,16.6 14.5,20.8c5.4,2.9 24.9,2.7 30.5,-0.3c9.9,-5.3 14.5,-16 14.5,-33.8v-8.5h-4.5h-4.5v7.7c-0.1,19.5 -5.4,28 -18.4,29c-11.9,1 -19,-3.5 -22.1,-13.9c-1.2,-4.2 -1.5,-12 -1.5,-43.2c0,-22.3 0.5,-40 1.1,-42.6c2.1,-9.5 7.8,-14.5 17.7,-15.7c9.9,-1.1 18.7,3.9 21.2,12.2c0.6,2.2 1.4,8.4 1.7,13.7l0.6,9.8h4.5h4.5l-0.6,-11.3c-0.3,-6.7 -1.1,-13.1 -2.1,-15.8c-2.3,-6.3 -7.6,-12.3 -12.8,-14.4c-6,-2.4 -18.9,-2.9 -25.7,-1z" />
		<path id="Layer" class="shp0" d="M1602.5,9.4c-12,3.8 -16.6,10.1 -18.1,25.2l-0.7,6.4h4.5h4.5l0.7,-6.1c0.7,-7.5 3.9,-13.6 8.4,-16.2c2.1,-1.2 5.9,-2.1 10,-2.4c9.2,-0.6 14.6,2.1 18.2,9.2c2.2,4.3 2.5,6.2 2.5,15c0,10.9 -1.2,15.9 -5.2,20.6c-3.8,4.4 -7.7,6.1 -16.5,6.6l-7.8,0.6v3.3v3.4h5.3c17.2,0 25.6,11 24.5,32.4c-0.6,11.1 -3,17.1 -8.3,21.2c-3.2,2.4 -4.9,2.9 -10.9,3.2c-5.6,0.2 -7.9,-0.1 -10.6,-1.6c-4.5,-2.5 -7.8,-8.9 -8.6,-17l-0.7,-6.2h-4.5h-4.5l0.6,6.5c0.9,9.5 2.6,14.1 6.9,19c5.3,6 11.2,7.9 22.7,7.3c19.2,-1 27.4,-11.8 27.3,-36.3c0,-15.7 -3.8,-24.8 -12.6,-30c-2.4,-1.5 -3.4,-2.5 -2.4,-2.5c2.7,0 9.4,-6.6 11.7,-11.3c3,-6.2 4.4,-18 3.1,-26.2c-2,-12.7 -8.3,-21 -18.2,-24c-6.1,-1.8 -15.7,-1.9 -21.3,-0.1z" />
		<path id="Layer" class="shp0" d="M1893,8.4c13.7,0.5 20.9,4.8 25.7,15.3c3.9,8.5 4.5,15.7 4.1,55c-0.3,35.1 -0.5,37.1 -2.6,42.8c-4.7,12.7 -11.9,17.7 -26.7,18.3c-12.9,0.6 -19.5,-1.4 -25.5,-7.7c-8.3,-8.5 -8.5,-9.8 -8.5,-59.1v-42.5l3.5,-7c4.1,-8.1 8.3,-11.8 16,-14c3.6,-1 8.4,-1.4 14,-1.1zM1875.8,20.7c-6.9,6.2 -8.1,15.8 -7.5,59c0.4,35.1 0.8,38.1 5,44.4c6.2,9.5 24.7,10.8 33.1,2.5c6.3,-6.3 6.8,-10.6 6.4,-55.1l-0.3,-39l-2.7,-5.6c-2,-4 -3.8,-6.1 -6.7,-7.7c-7.6,-4.3 -21.8,-3.5 -27.3,1.5z" />
		<path id="Layer" class="shp0" d="M66,74v64h4.5h4.5v-31.1v-31l5.3,0.3l5.2,0.3l15.7,30c8.7,16.5 15.9,30.4 16.1,30.8c0.1,0.5 2.5,0.7 5.3,0.5l5.1,-0.3l-16.9,-32.7l-17,-32.8l14.2,-29.7c7.8,-16.4 14.4,-30.4 14.7,-31.1c0.4,-1 -0.7,-1.2 -4.7,-1l-5.3,0.3l-14,29.7l-14,29.8h-4.8h-4.9v-30v-30h-4.5h-4.5z" />
		<path id="Layer" class="shp0" d="M154,74v64h4.4h4.4l20.9,-52.1l20.8,-52.2l0.3,52.2l0.2,52.1h4.5h4.5v-64v-64h-4.2h-4.3l-21,52.7l-21,52.6l-0.3,-52.6l-0.2,-52.7h-4.5h-4.5z" />
		<path id="Layer" class="shp0" d="M251,74v64h23h23v-3.5v-3.5h-18h-18v-28v-28h14.5h14.5v-3.5v-3.5h-14.5h-14.5v-25.5v-25.5h17.5h17.5v-3.5v-3.5h-22.5h-22.5z" />
		<path id="Layer" class="shp0" d="M328,10h17.8c18.7,0 22.9,0.6 28.3,4.3c9.5,6.4 13.6,27.5 8.3,43c-1,2.8 -3.1,6 -5.6,8.2c-2.2,2 -3.8,3.8 -3.6,3.9c8.1,5.1 12.2,12 13.8,23.6c2,13.9 -1.3,30.8 -7.3,37.7c-5.8,6.6 -8.6,7.3 -31.4,7.3h-20.3zM349.1,17.3l-12.1,-0.6v49.5l13.3,-0.4c18.9,-0.6 22.4,-2.9 24.7,-17c2.3,-13.3 -1.4,-24.7 -9.2,-28.6c-3.7,-1.9 -6.8,-2.4 -16.7,-2.9zM350.3,73.2l-13.3,-0.4v58.4l13.8,-0.4c11.5,-0.3 14.3,-0.6 17.2,-2.4c7.5,-4.3 10.5,-13.3 9.8,-29.4c-0.3,-8.2 -0.8,-10.5 -3.3,-15.5c-2.3,-4.5 -3.9,-6.4 -7,-8c-3.3,-1.6 -6.3,-2.1 -17.2,-2.3z" />
		<path id="Layer" class="shp0" d="M511,74v64h5h5v-31v-31h4.8h4.8l16.1,30.7l16.2,30.8l5,0.3c2.8,0.2 5.1,0.1 5.1,-0.1c0,-0.2 -7.5,-14.7 -16.6,-32.3c-9.1,-17.5 -16.6,-32.4 -16.7,-33.1c0,-0.6 6.3,-14.6 14.1,-31.1c7.8,-16.5 14.2,-30.2 14.2,-30.6c0,-0.3 -2.2,-0.6 -4.8,-0.6h-4.9l-13.9,29.7l-14,29.8l-4.7,0.3l-4.7,0.3v-30v-30.1h-5h-5z" />
		<path id="Layer" class="shp0" d="M625.5,10c4.8,0 5.5,0.3 6,2.2c0.3,1.3 6.2,29.1 13.1,61.8c6.9,32.7 12.8,60.5 13.1,61.7c0.5,2.2 0.2,2.3 -4.5,2.3h-5l-6.6,-35h-32.2l-6.6,35h-4.9c-4.6,0 -4.9,-0.1 -4.4,-2.3c0.3,-1.2 6.2,-29.2 13.1,-62.2c6.9,-33 12.7,-60.8 13,-61.8c0.4,-1.3 1.7,-1.7 5.9,-1.7zM625.7,24.7c-0.1,-0.5 -3.3,14.3 -7.1,33c-3.7,18.6 -7,34.8 -7.3,36l-0.5,2.3h14.6c8.5,0 14.6,-0.4 14.6,-0.9c0,-0.6 -3.2,-16.4 -7,-35.3c-3.9,-18.9 -7.1,-34.7 -7.3,-35.1z" />
		<path id="Layer" class="shp0" d="M729.8,10h19.2v128h-10v-55.1l-12.5,0.3l-12.6,0.3l-11.3,27l-11.4,27l-5.6,0.3c-5.5,0.3 -5.6,0.3 -4.7,-2c0.5,-1.3 6.2,-14.2 12.6,-28.8c10.4,-23.8 11.4,-26.6 9.9,-27.5c-11.7,-6.8 -18,-24.2 -15.4,-42.5c1.9,-13.3 8.1,-21.8 18.7,-25.6c2.7,-0.9 9.5,-1.3 23.1,-1.4zM739,17l-10.2,0.1c-18,0.2 -23.5,2.4 -28.5,11.4c-2.6,4.6 -2.8,5.8 -2.8,16c0,13.6 1.9,19.8 7.5,24.9c5.1,4.6 9.2,5.6 22.8,5.6h11.2z" />
		<path id="Layer" class="shp0" d="M922,74v64h5h5v-60.5v-60.5h22h22v60.5v60.5h5h5v-64v-64h-32h-32z" />
		<path id="Layer" class="shp0" d="M1023,74v64h23h23v-3.5v-3.5h-18h-18v-28v-28h14.5h14.5v-3.5v-3.5h-14.5h-14.5v-25.5v-25.5h17.5h17.5v-3.5v-3.5h-22.5h-22.5z" />
		<path id="Layer" class="shp0" d="M1100,74v64h31.4h31.4l0.6,3.1c0.3,1.7 0.6,6.7 0.6,11v7.9h4h4v-14.5v-14.5h-4.5h-4.5v-60.5v-60.5h-4.5h-4.5v60.5v60.5h-22.5h-22.5v-60.5v-60.5h-4.5h-4.5z" />
		<path id="Layer" class="shp0" d="M1202,74.1v64l4.2,-0.3l4.2,-0.3l21.3,-53l21.2,-53l0.1,53.2v53.3h4h4v-64.1v-64l-4.1,0.3l-4.1,0.3l-21.2,52.8l-21.1,52.9l-0.3,-53.1l-0.2,-53.1h-4h-4z" />
		<path id="Layer" class="shp0" d="M1318.5,10h11.2l2.3,10.7c1.2,6 7.3,34.6 13.4,63.8l11.2,53l-4.4,0.3c-2.4,0.2 -4.7,0.1 -5,-0.3c-0.3,-0.3 -2,-8.1 -3.7,-17.3l-3.1,-16.7l-16.1,-0.3c-16,-0.2 -16.1,-0.2 -16.6,2c-0.3,1.3 -1.8,9.2 -3.4,17.5l-2.8,15.3h-4.9c-4.5,0 -4.8,-0.2 -4.4,-2.3c0.2,-1.2 6.3,-30 13.4,-63.9zM1324.6,25.5c-0.2,-0.6 -0.6,0.1 -1,1.5c-1.3,5.3 -13.6,66.4 -13.6,67.7c0,1 3.1,1.3 14.6,1.3h14.6l-0.6,-2.4c-0.3,-1.3 -3.5,-16.9 -7.1,-34.7c-3.6,-17.8 -6.7,-32.9 -6.9,-33.4z" />
		<path id="Layer" class="shp0" d="M1405.6,12.2c-0.3,1.3 -0.8,6.8 -1.1,12.3c-2.2,37.7 -6.8,85.3 -9,94c-1.9,7.5 -5.5,11.1 -11.9,12c-4.6,0.7 -4.6,0.7 -4.6,4.7v4l5.8,-0.7c8.7,-1 13.4,-3.7 16.4,-9.3c4.5,-8.4 6.1,-19.4 10.3,-71.2c1.4,-17.9 2.8,-34.4 3.1,-36.8l0.5,-4.2h14h13.9v60.5v60.5h5h5v-64v-64h-23.5h-23.5z" />
		<path id="Layer" class="shp0" d="M1489,74.1v64l4.6,-0.3l4.6,-0.3l20.9,-52l20.8,-52l0.1,52.2v52.3h4.5h4.5v-64.1v-64l-4.2,0.3l-4.2,0.3l-21.1,52.3l-21,52.3l-0.3,-52.5l-0.2,-52.6h-4.5h-4.5z" />
		<path id="Layer" class="shp0" d="M1673,74v64h4.4h4.4l20.9,-52.1l20.8,-52.2l0.3,52.2l0.2,52.1h4.5h4.5v-64v-64h-4.2h-4.3l-21,52.7l-21,52.6l-0.3,-52.6l-0.2,-52.7h-4.5h-4.5z" />
		<path id="Layer" class="shp0" d="M1770,9.9l21.8,0.3c21.7,0.3 21.7,0.3 26.4,3.1c8.1,4.7 12.8,15.6 12.8,29.7c0,13.8 -5,25.3 -13.4,30.5c-4.9,3 -5.1,3 -21.3,3.3l-16.3,0.4v60.8h-10zM1793.8,17.2l-13.8,-0.4v53.4l13.3,-0.4c16.3,-0.4 20.5,-2.2 24.6,-10.3c2.4,-4.5 2.6,-6 2.6,-17c0,-10.9 -0.2,-12.4 -2.5,-16.5c-1.7,-3 -3.8,-5.2 -6.5,-6.5c-3.3,-1.6 -6.5,-2.1 -17.7,-2.3z" />
		<path id="Layer" class="shp0" d="M1957,10h18.3c21.4,0 25.6,0.9 31.1,7.1c5.4,5.9 6.8,10.1 7.3,22c0.7,12.9 -1.2,20.6 -6,25.4c-1.8,1.8 -3.9,3.5 -4.7,3.8c-1.3,0.6 -1.3,0.8 0,1.3c0.8,0.4 3.4,2.6 5.7,4.8c6.4,6.4 8.7,15.3 8.1,30.5c-0.7,14 -3.2,21.7 -8.8,27.1c-5.4,5.3 -9.1,6 -31.4,6h-19.6zM1978.3,17.3l-11.3,-0.6v49.5l13.3,-0.4c10.8,-0.3 13.8,-0.7 16.5,-2.3c5,-3 7.6,-9.4 8,-19.7c0.6,-14 -3.4,-22.3 -11.9,-24.9c-1.9,-0.5 -8.5,-1.3 -14.6,-1.6zM1977.8,73h-10.8v58.2l13.3,-0.4c16.9,-0.5 19.9,-1.7 24.2,-10.3c2.8,-5.6 3,-6.7 3,-18c0,-11.4 -0.2,-12.3 -3,-18c-3.4,-6.6 -6.3,-9.2 -12.1,-10.5c-2.1,-0.5 -8.7,-1 -14.6,-1z" />
		<path id="Layer" class="shp0" d="M2074.8,10.2l5.5,0.3l13.3,63c7.4,34.6 13.4,63.3 13.4,63.7c0,0.5 -2.2,0.8 -4.9,0.8c-4.9,0 -4.9,0 -5.5,-3.8c-0.4,-2 -1.9,-9.9 -3.3,-17.5l-2.6,-13.7l-16.1,0.2l-16.1,0.3l-2.6,13.5c-1.4,7.4 -2.9,15.2 -3.3,17.2c-0.7,3.8 -0.7,3.8 -5.7,3.8c-4.3,0 -5,-0.2 -4.5,-1.8c0.3,-0.9 6.2,-28.7 13.1,-61.6c6.9,-33 12.8,-61 13.1,-62.3c0.6,-2.2 1.1,-2.4 6.2,-2.1zM2074.7,24.4c-0.1,-0.2 -3.4,15.3 -7.1,34.4c-3.8,19.1 -7.1,35.3 -7.4,35.9c-0.3,1 2.9,1.3 14.2,1.3c11.4,0 14.6,-0.3 14.6,-1.3c0,-0.7 -3.2,-16.8 -7,-35.7c-3.9,-18.9 -7.2,-34.5 -7.3,-34.6z" />
		<path id="Layer" class="shp0" d="M2137,74v64h5h5v-31.5v-31.5h22h22v31.5v31.5h4.5h4.5v-64v-64h-4.5h-4.5v28.5v28.5h-22h-22v-28.5v-28.5h-5h-5z" />
		<path id="Layer" class="shp0" d="M2238,74v64h4.5h4.5v-31.5v-31.5h22h22v31.5v31.5h5h5v-64v-64h-5h-5v28.5v28.5h-22h-22v-28.5v-28.5h-4.5h-4.5z" />
		<path id="Layer" class="shp0" d="M2363.5,10c4.8,0 5.5,0.3 6,2.2c0.3,1.3 6.1,29 13,61.7c6.9,32.6 12.8,60.4 13.1,61.7c0.6,2.3 0.4,2.4 -4.4,2.4c-4.3,0 -5,-0.3 -5.5,-2.3c-0.3,-1.2 -1.8,-9.1 -3.3,-17.5l-2.8,-15.2h-32.2l-6.6,35h-4.9c-4.6,0 -4.9,-0.2 -4.4,-2.3c0.3,-1.2 6.2,-29.2 13,-62.2c6.9,-33 12.8,-60.8 13.1,-61.8c0.4,-1.3 1.7,-1.7 5.9,-1.7zM2370.7,58.3l-7.2,-35.3l-6.9,34.8c-3.8,19.1 -7.1,35.5 -7.4,36.4c-0.4,1.7 0.8,1.8 14.2,1.8c11,0 14.6,-0.3 14.6,-1.3c-0.1,-0.6 -3.3,-17.1 -7.3,-36.4z" />
		<path id="Layer" class="shp0" d="M2467.8,10h19.2v128h-10v-55.1l-12.6,0.3l-12.5,0.3l-11.4,27l-11.3,27l-5.6,0.3c-5.5,0.3 -5.6,0.3 -4.7,-2c0.5,-1.3 6.2,-14.2 12.5,-28.8c10.6,-24.1 11.5,-26.6 9.9,-27.5c-1,-0.6 -3.9,-3.1 -6.5,-5.7c-6.5,-6.5 -9,-14.4 -9,-28.8c-0.1,-18.8 5.6,-28.8 19.1,-33.6c2.4,-0.9 9.7,-1.3 22.9,-1.4zM2477,17l-10.7,0.1c-17.9,0.1 -24.2,2.9 -29,12.9c-2.4,5.1 -2.4,23.7 0,30.7c2.1,6.1 7.8,11.7 13.4,13.2c2.1,0.6 8.9,1.1 15.1,1.1h11.2z" />
		<path id="Layer" class="shp0" d="M89.5,221.6c-12.4,3.2 -18.5,9.9 -21.4,23.2c-1.5,7.2 -1.5,77.2 0,84.4c3.8,17.6 13.1,24.5 32.2,23.6c9.5,-0.4 13.8,-1.9 18.5,-6.2c5.5,-4.9 9.2,-17.2 9.2,-30.9v-7.7h-4.3h-4.4l-0.6,10.2c-0.9,15.4 -3.6,21.5 -11.1,24.9c-9,4.1 -21.5,1.3 -26.3,-6c-4.5,-6.8 -4.8,-9.4 -4.8,-50.1c0,-34.8 0.2,-39 1.8,-43.8c1.1,-2.9 3,-6.6 4.4,-8.2c5,-6 19.5,-7.6 27.1,-3c5.6,3.4 9.2,14.1 9.2,27.2v5.8h4.6h4.7l-0.6,-10.8c-1.1,-23.2 -8.6,-32.1 -27.5,-32.8c-4.8,-0.2 -9.6,-0.1 -10.7,0.2z" />
		<path id="Layer" class="shp0" d="M802.5,221.7c-8.6,1.9 -14.2,5.9 -17.6,12.4c-1.6,3.2 -3.8,13.8 -3.9,18.6c0,0.9 1.5,1.3 4.4,1.3h4.4l0.7,-5.8c1.5,-12.7 6.8,-18.2 18.3,-18.9c8.8,-0.6 14.6,2.2 18.2,8.7c2.3,4.1 2.5,5.6 2.5,16c0,10.4 -0.3,12 -2.6,16.5c-3.5,6.9 -8.4,9.5 -18.9,10.2l-8,0.6v3.2v3.2l7.3,0.5c10.4,0.7 15.2,3.5 19.1,11.2c2.6,5 3.1,7.2 3.4,15.6c0.8,20.4 -5.7,30 -20.3,30c-9.5,0 -14.5,-4 -17,-13.5c-0.8,-3.2 -1.5,-7.2 -1.5,-8.7c0,-2.7 -0.2,-2.8 -4.6,-2.8h-4.7l0.7,6.2c1.4,12.3 4.1,18.2 10.5,22.5c5,3.4 10.7,4.6 19.6,4.1c15.8,-0.9 23.5,-8.4 26.6,-26.2c1.3,-8 0.6,-20.1 -1.6,-26.8c-2,-5.6 -6.6,-11.3 -11.3,-13.8c-2.2,-1.1 -3,-1.9 -2,-2c2.5,0 9.6,-6.7 11.8,-11c4.3,-8.5 5,-24 1.4,-34.4c-2.5,-7.1 -9.5,-14 -16.3,-16c-5.1,-1.5 -14.1,-1.9 -18.6,-0.9z" />
		<path id="Layer" class="shp0" d="M1707.2,221.4c15.3,0.6 22.6,5.9 27.5,20c1.6,4.6 1.8,9.3 1.8,45.6c0,45.1 -0.3,47.6 -6.8,56.2c-4.8,6.4 -11.1,9.1 -22.3,9.6c-19.5,0.9 -29.6,-6.3 -33.3,-23.6c-1.7,-8.2 -1.5,-79.2 0.3,-85.9c3.1,-11.5 9,-18.1 18.6,-20.8c3.7,-1 8.4,-1.4 14.2,-1.1zM1689.8,233.7c-6.9,6.2 -8.1,15.8 -7.5,59c0.4,35.1 0.8,38.1 5,44.4c6.3,9.5 25.3,10.8 33.3,2.4c6.1,-6.5 6.6,-11 6.2,-55l-0.3,-39l-2.7,-5.7c-2.1,-4.5 -3.5,-6.1 -6.8,-7.8c-8,-4.1 -21.8,-3.2 -27.2,1.7z" />
		<path id="Layer" class="shp0" d="M142,222.9l21.8,0.3c21.7,0.3 21.7,0.3 26.4,3.1c8.1,4.7 12.8,15.6 12.8,29.7c0,13.8 -5,25.3 -13.4,30.5c-4.9,3 -5.1,3 -21.3,3.3l-16.3,0.4v60.8h-10zM165.8,230.2l-13.8,-0.4v53.4l13.3,-0.4c16.3,-0.4 20.5,-2.2 24.6,-10.3c2.4,-4.5 2.6,-6 2.6,-17c0,-11 -0.2,-12.4 -2.5,-16.4c-1.6,-2.8 -3.9,-5.2 -6.5,-6.5c-3.3,-1.7 -6.3,-2.1 -17.7,-2.4z" />
		<path id="Layer" class="shp0" d="M214,287v64h23h23v-3.5v-3.5h-18h-18v-28v-28h14.5h14.5v-3.5v-3.5h-14.5h-14.5v-25.5v-25.5h17.5h17.5v-3.5v-3.5h-22.5h-22.5z" />
		<path id="Layer" class="shp0" d="M290,223h46v121h10v29h-7.7l-0.7,-5.3c-0.3,-2.8 -0.6,-7.8 -0.6,-11v-5.7l-33.2,0.2l-33.3,0.3l-0.3,10.7l-0.3,10.8h-7.9v-29h2.3c3.3,0 10.1,-6.2 12.6,-11.3c2.8,-5.7 5.6,-19.9 7.5,-37.7c1.6,-14.9 5.6,-64 5.6,-69.1zM327,230h-14c-13.9,0 -14,0 -14,2.3c0,1.3 -0.9,13.5 -2,27.2c-4.5,56.4 -7.4,72.6 -14.7,80.6l-3.5,3.9h48.2z" />
		<path id="Layer" class="shp0" d="M357,287v64h4.5h4.5v-31.5v-31.5h22h22v31.5v31.5h5h5v-64v-64h-5h-5v28.5v28.5h-22h-22v-28.5v-28.5h-4.5h-4.5z" />
		<path id="Layer" class="shp0" d="M479.3,223.1l19.7,-0.1v128h-10v-55h-12.7l-12.8,0.1l-11.4,27.4l-11.5,27.5h-5.3c-2.9,0 -5.3,-0.3 -5.3,-0.6c0,-0.5 23.8,-55.2 24.6,-56.5c0.2,-0.4 -1.8,-2 -4.5,-3.6c-3.9,-2.4 -5.5,-4.4 -8,-9.4c-4,-8.2 -5.4,-16.3 -4.8,-27c0.8,-14.8 7.4,-25.5 18.1,-29.3c3,-1.1 9.3,-1.5 23.9,-1.5zM489,230l-10.7,0.1c-17.1,0.1 -23.5,2.6 -28.3,11c-2.3,4.1 -2.5,5.4 -2.5,17.4c0,11.6 0.3,13.5 2.4,17.8c4.5,9.2 10.5,11.7 27.9,11.7h11.2z" />
		<path id="Layer" class="shp0" d="M558.3,223.1l19.7,-0.1v128h-10v-55h-25.5l-23,55h-5.2c-2.9,0 -5.3,-0.3 -5.3,-0.7c0,-0.4 5.5,-13.3 12.2,-28.7l12.2,-27.9l-2.4,-1.6c-10,-6.3 -15,-18 -15,-35c0,-15.9 6.4,-27.8 17.3,-32c4.5,-1.7 7.7,-2 25,-2zM568,230l-10.7,0.1c-15.9,0.1 -22.1,2 -26.6,8.1c-3.7,5 -5.1,10.4 -5,19.8c0,11.4 2.3,19 7.1,23.8c5,5 9.6,6.2 23.6,6.2h11.6z" />
		<path id="Layer" class="shp0" d="M623,230.7c0,4.3 -0.7,28 -1.5,52.8c-0.8,24.7 -1.5,50.1 -1.5,56.2v11.3h4c3.8,0 4,-0.1 4,-3.3c0,-7.4 3,-97.1 3.3,-97.3c0.1,-0.1 5.6,22.3 12.3,49.9l12,50.2h3.9h3.9l12.1,-49.7c7,-29 12.3,-49 12.7,-48c0.5,1.4 2.9,77.7 2.8,92.9v5.3h4.6h4.6l-0.6,-11.8c-0.3,-6.4 -1,-30.6 -1.6,-53.7c-0.6,-23.1 -1.3,-46.6 -1.6,-52.3l-0.6,-10.2h-4.8h-4.8l-4,16.7c-2.2,9.3 -8.2,34.5 -13.3,56c-5.1,21.6 -9.4,39.1 -9.6,38.9c-0.1,-0.1 -5.9,-24.3 -12.8,-53.7c-6.8,-29.4 -12.7,-54.4 -13,-55.7c-0.5,-1.9 -1.2,-2.2 -5.5,-2.2h-5z" />
		<path id="Layer" class="shp0" d="M710,223.6c0,0.3 6.3,24.9 14.1,54.7c13.3,51.4 14,54.6 13.5,61.1c-1.3,14.1 -5.5,18.6 -17.6,18.6h-6v4.1v4.2l8.9,-0.5c11.6,-0.7 16.1,-3.1 19.6,-10.2c1.5,-3.2 7.6,-28.2 16.5,-67.1c7.7,-34.1 14.3,-62.8 14.6,-63.8c0.5,-1.5 -0.2,-1.7 -4.5,-1.7c-3.9,0 -5.1,0.4 -5.5,1.7c-0.9,3.1 -14.3,66.3 -17.2,80.5c-1.5,7.6 -3,13.5 -3.4,13.3c-0.4,-0.3 -1,-1.9 -1.4,-3.7c-0.3,-1.8 -5.4,-23.2 -11.3,-47.6l-10.7,-44.2h-4.8c-2.6,0 -4.8,0.2 -4.8,0.6z" />
		<path id="Layer" class="shp0" d="M852,223h9v54h11.9c15.1,0 20.7,1.7 27.2,8c5.9,5.8 8.9,13.4 9.6,25.2c1,15.2 -2.6,26.9 -10.6,34.1c-6.1,5.5 -11.6,6.7 -30.8,6.7h-16.3zM873.3,285.2l-12.3,-0.4v59.5l10.8,-0.6c22,-1.1 27.7,-7.2 27.7,-29.7c0,-10.4 -0.3,-12.1 -2.7,-17.2c-1.9,-4 -3.8,-6.5 -6.9,-8.5c-4,-2.6 -5,-2.8 -16.6,-3.1z" />
		<path id="Layer" class="shp0" d="M925,287v64h5h5v-64v-64h-5h-5z" />
		<path id="Layer" class="shp0" d="M953,287v64h5h5v-31v-31h4.8h4.7l16,30.6c8.8,16.9 16.5,30.8 17.1,31.1c0.7,0.2 3,0.3 5.2,0.1l4.1,-0.3l-17,-32.7l-16.9,-32.7l14.5,-30.6c8,-16.9 14.5,-30.9 14.5,-31.2c0,-0.2 -2.3,-0.3 -5.1,-0.1l-5.1,0.3l-13.8,29.5l-13.8,29.5l-4.6,0.3l-4.6,0.3v-30v-30.1h-5h-5z" />
		<path id="Layer" class="shp0" d="M1048.5,223c3,0 5.5,0.2 5.5,0.4c0,0.7 26.1,124.1 26.6,125.8c0.5,1.6 -0.2,1.8 -4.4,1.8h-5l-1,-4.8c-0.6,-2.6 -2.1,-10.4 -3.4,-17.5l-2.3,-12.7h-32.3l-6.6,35h-4.8c-2.6,0 -4.8,-0.2 -4.8,-0.5c0,-0.8 26.1,-125 26.5,-126.3c0.3,-0.7 2.4,-1.2 6,-1.2zM1048.1,237.3c-0.1,0.4 -3.2,16.3 -7.1,35.3c-3.8,19.1 -7,35 -7,35.5c0,0.5 6.5,0.9 14.5,0.9c8,0 14.5,-0.3 14.5,-0.8c-0.1,-1.5 -14.8,-71.7 -14.9,-70.9z" />
		<path id="Layer" class="shp0" d="M1110.6,228.2c-0.4,2.9 -1.3,15 -2.1,26.8c-2.3,31.8 -5.4,64.2 -7,72.6c-2.2,11.7 -4.7,14.6 -13.5,16c-3.9,0.6 -4,0.8 -4,4.6v4l5.8,-0.7c7.9,-0.9 13.5,-3.6 16,-7.6c4.7,-7.8 6.4,-18.8 10.6,-70.4c1.4,-17.1 2.8,-33.8 3.2,-37.3l0.6,-6.2h13.9h13.9v60.5v60.5h5h5v-64v-64h-23.4h-23.5z" />
		<path id="Layer" class="shp0" d="M1176,223h9v54h11.9c13.9,0 20.1,1.6 26.1,6.8c8,6.8 11.7,19.2 10.7,35.4c-0.7,10.9 -4.1,19 -10.2,24.7c-6.4,5.9 -11.7,7.1 -31.2,7.1h-16.3zM1196.3,285h-11.3v59.3l11.7,-0.6c15,-0.8 19.1,-2.7 23.7,-10.7c3,-5.3 3.1,-5.8 3.1,-18c0,-13.3 -0.8,-16.8 -5.3,-22.9c-1.4,-1.8 -4.3,-4.2 -6.6,-5.2c-3.2,-1.5 -6.5,-1.9 -15.3,-1.9z" />
		<path id="Layer" class="shp0" d="M1244,287v64h5h5v-31.5v-31.5h22h22v31.5v31.5h4.5h4.5v-64v-64h-4.5h-4.5v28.5v28.5h-22h-22v-28.5v-28.5h-5h-5z" />
		<path id="Layer" class="shp0" d="M1345.4,223h11.2l13.2,62.7c7.3,34.6 13.2,63.4 13.2,64.1c0,0.9 -1.4,1.2 -4.7,1l-4.7,-0.3l-3.3,-17c-1.7,-9.4 -3.2,-17.1 -3.2,-17.3c-0.1,-0.1 -7.3,-0.2 -16,-0.2h-16l-1.1,5.5c-0.6,3 -2.1,10.8 -3.4,17.3l-2.2,11.7l-4.7,0.3c-2.6,0.2 -4.7,-0.1 -4.7,-0.5c-0.1,-0.4 5.9,-29.3 13.2,-64.1zM1351.1,239c-0.3,0 -3.8,15.7 -7.6,35l-7,35h14.8c11.5,0 14.8,-0.3 14.5,-1.3c-0.3,-0.6 -3.6,-16.4 -7.3,-35c-3.8,-18.5 -7.1,-33.7 -7.4,-33.7z" />
		<path id="Layer" class="shp0" d="M1436.3,223.1l19.7,-0.1v128h-10v-55h-25.5l-11.4,27.5l-11.5,27.5h-5.3c-2.9,0 -5.3,-0.3 -5.3,-0.6c0,-0.5 23.8,-55.2 24.6,-56.5c0.2,-0.4 -1.8,-2 -4.5,-3.6c-3.9,-2.4 -5.5,-4.4 -8,-9.4c-4,-8.2 -5.4,-16.3 -4.8,-27c0.8,-14.8 7.4,-25.5 18.1,-29.3c3,-1.1 9.3,-1.5 23.9,-1.5zM1446,230l-10.7,0.1c-17.1,0.1 -23.5,2.6 -28.3,11c-2.3,4.1 -2.5,5.4 -2.5,17.4c0,11.6 0.3,13.5 2.4,17.8c4.5,9.2 10.5,11.7 27.9,11.7h11.2z" />
		<path id="Layer" class="shp0" d="M1499,287v64h44h44v-64v-64h-4.5h-4.5v60.5v60.5h-14.5h-14.5v-60.5v-60.5h-5h-5v60.5v60.5h-15h-15v-60.5v-60.5h-5h-5z" />
		<path id="Layer" class="shp0" d="M1606,287v64h4.5h4.5v-31.1v-31l5.2,0.3l5.1,0.3l16.1,30.7l16.1,30.8h5.2h5.1l-4.8,-9.3c-19.8,-38.1 -29,-56 -29,-56.6c0,-0.4 6.5,-14.4 14.4,-31.2l14.5,-30.4l-4.1,-0.3c-2.2,-0.2 -4.6,-0.1 -5.2,0.1c-0.7,0.3 -7.5,13.8 -15.1,30.1l-13.9,29.6h-4.8h-4.8v-30v-30h-4.5h-4.5z" />
		<path id="Layer" class="shp0" d="M1771,224.1c0,3.7 -5.3,70.8 -6.6,82.9c-3.1,30.7 -4.8,34.5 -15.8,36.5c-3.4,0.7 -3.6,0.9 -3.6,4.7v4.1l5.3,-0.7c12.1,-1.6 17.4,-6.9 20.2,-20.4c2.1,-9.8 9.5,-87.5 9.5,-99.5c0,-1.5 1.3,-1.7 14,-1.7h14v60.5v60.5h5h5v-64v-64h-23.5c-16.8,0 -23.5,0.3 -23.5,1.1z" />
		<path id="Layer" class="shp0" d="M1856.2,222.9l5.5,0.3l5.6,0.3l13.3,63c7.4,34.6 13.4,63.3 13.4,63.7c0,0.5 -2.2,0.8 -4.8,0.8h-4.8l-6.6,-35l-16.1,0.2l-16.2,0.3l-3.2,16.9c-1.8,9.3 -3.4,17.1 -3.7,17.3c-0.2,0.2 -2.4,0.3 -4.8,0.1l-4.5,-0.3l11.8,-56.5c6.5,-31.1 12.6,-59.8 13.5,-63.8zM1861.7,237.4c-0.1,-0.2 -3.4,15.3 -7.1,34.4c-3.8,19.1 -7.1,35.3 -7.4,35.9c-0.3,1 2.9,1.3 14.2,1.3c11.7,0 14.6,-0.3 14.6,-1.4c0,-0.7 -3.2,-16.8 -7,-35.7c-3.9,-18.8 -7.2,-34.4 -7.3,-34.5z" />
		<path id="Layer" class="shp0" d="M1946,287.1v64l4.2,-0.3l4.2,-0.3l21.3,-53l21.2,-53l0.1,53.2v53.3h4h4v-64.1v-64l-4.1,0.3l-4.1,0.3l-21.2,52.9l-21.1,52.9l-0.3,-53.2l-0.2,-53.1h-4h-4z" />
		<path id="Layer" class="shp0" d="M2023,287v64h5h5v-31.5v-31.5h22h22v31.5v31.5h5h5v-64v-64h-5h-5v28.5v28.5h-22h-22v-28.5v-28.5h-5h-5z" />
		<path id="Layer" class="shp0" d="M2096,226.5v3.5h13h13v60.5v60.5h4.5h4.5v-60.5v-60.5h12.5h12.5v-3.5v-3.5h-30h-30z" />
		<path id="Layer" class="shp0" d="M2166,287v64h22.5h22.5v-3.5v-3.5h-18h-18v-28v-28h15h15v-3.5v-3.5h-15h-15v-25.5v-25.5h18h18v-3.5v-3.5h-22.5h-22.5z" />
		<path id="Layer" class="shp0" d="M2223,222.9l21.8,0.3c21,0.3 21.8,0.4 26.2,2.8c5.7,3.2 10.5,10.3 12,17.7c0.7,3.1 1,10 0.8,15.2c-0.3,7.8 -0.9,10.7 -3.1,15.6c-3.3,7.1 -5.8,9.9 -11.2,12.8c-3.5,1.9 -6,2.2 -20.2,2.5l-16.3,0.4v60.8h-10zM2247.3,230.2l-14.3,-0.4v53.2h10.5c14.4,0 19.8,-1.3 24.4,-5.9c4.7,-4.7 6.1,-9.9 6.1,-21.9c0,-13.1 -2.6,-19.3 -9.5,-23c-2.2,-1.2 -6.7,-1.7 -17.2,-2z" />
		<path id="Layer" class="shp0" d="M2296,287v64h4.5h4.5v-31.5v-31.5h22h22v31.5v31.5h5h5v-64v-64h-5h-5v28.5v28.5h-22h-22v-28.5v-28.5h-4.5h-4.5z" />
		<path id="Layer" class="shp0" d="M2402.5,223c4.8,0 5.5,0.3 6,2.2c0.3,1.3 6.2,29.1 13.1,61.8c6.9,32.7 12.8,60.5 13.1,61.7c0.5,2.2 0.2,2.3 -4.5,2.3h-5l-6.6,-35h-32.2l-6.6,35h-4.9c-4.6,0 -4.9,-0.2 -4.4,-2.3c0.3,-1.2 6.2,-29.2 13.1,-62.2c6.8,-33 12.7,-60.8 13,-61.8c0.4,-1.3 1.7,-1.7 5.9,-1.7zM2402.7,237.6c-0.2,-0.5 -3.3,14.4 -7.1,33c-3.7,18.6 -7,34.9 -7.3,36.1l-0.5,2.3h14.6c8.1,0 14.6,-0.4 14.6,-0.9c0,-0.5 -3.2,-16.4 -7,-35.3c-3.9,-18.8 -7.2,-34.7 -7.3,-35.2z" />
		<path id="Layer" class="shp0" d="M2432,226.5v3.5h13h13v60.5v60.5h4.5h4.5v-60.5v-60.5h12.5h12.5v-3.5v-3.5h-30h-30z" />
		<path id="Layer" class="shp0" d="M1900,297v4h16.5h16.5v-4v-4h-16.5h-16.5z" />
		<path id="Layer" class="shp0" d="M680.3,444.5c-12.1,3.3 -21.7,11.3 -27,22.5c-1.7,3.6 -4.1,7.4 -5.3,8.5c-2.2,2 -3.8,2 -273.9,2.3c-149.4,0.2 -273.6,0 -276,-0.3c-3.1,-0.5 -5.4,-1.6 -7.9,-4.1c-4.1,-4 -6.3,-4.8 -10.7,-4c-8,1.5 -11.4,12.4 -5.7,18.6c4,4.5 9,5 14.2,1.6c2.3,-1.5 6.5,-3.1 9.3,-3.7c3.4,-0.6 104,-0.8 276.8,-0.7c224.6,0.3 271.9,0.5 273.2,1.6c0.9,0.8 2.3,3.9 3.2,7c2.3,7.9 5.4,12.8 11.7,18.9c12,11.3 26.9,14.7 46.6,10.7c23.9,-4.8 37,-18.5 33.2,-34.6c-1.7,-6.9 -8.4,-13.7 -16.1,-16.4c-6.4,-2.2 -20.2,-2.5 -26.5,-0.7c-5.5,1.7 -12.4,6.5 -15.1,10.6c-4.8,7.1 -3.2,18.7 2.6,19.5c2.3,0.4 2.4,0.2 1.7,-3.5c-1.5,-7.8 -0.4,-10.3 7.1,-15.2c13.5,-9 34.7,-7.6 38.9,2.5c2.1,5.1 0.4,9.6 -6.2,16.1c-9.8,9.8 -25.1,15 -41.3,14.1c-27.2,-1.6 -39.1,-26.4 -20.6,-42.7c11.4,-10 38.1,-16.3 56,-13.2c15.7,2.7 63.4,17.7 104,32.7c11.8,4.3 13.8,4.8 22.1,4.8c9.9,0.1 12.4,-0.9 12.4,-5c0,-3.9 -3.4,-4.9 -7.8,-2.4c-2,1.2 -5.3,2.2 -7.3,2.2c-4.4,-0.1 -22,-6.6 -57.4,-21.3c-60,-24.8 -70.5,-28 -92.4,-27.8c-5.8,0 -13,0.7 -15.8,1.4z" />
		<path id="Layer" class="shp0" d="M1405.5,445.4c-4,1.7 -8.2,6.7 -9.5,11.4c-1.3,4.9 -1.3,52.5 0,57.4c1.4,4.8 5.5,9.7 9.7,11.4c1.8,0.8 6.2,1.4 9.8,1.4c13,0 18.2,-5.7 19.2,-21l0.6,-8h-4h-4l-0.5,7.3c-0.5,8 -2.7,13.2 -5.9,14.2c-4,1.3 -10.2,0.7 -12.8,-1.3c-1.4,-1 -3.1,-3.4 -3.8,-5.3c-1.5,-4.3 -1.7,-48.8 -0.3,-54.1c1.4,-5 5.2,-7.8 10.6,-7.8c8.8,0 11.5,3 12.2,13.7l0.5,7.3h4h4l-0.5,-7.4c-1,-14.7 -6.7,-20.6 -19.9,-20.6c-3.5,0.1 -7.8,0.7 -9.4,1.4z" />
		<path id="Layer" class="shp0" d="M1667.2,448.8c5.6,5.2 6.3,9.2 6.3,36.7c0,28.2 -0.7,31.8 -7,37.4c-4.1,3.5 -8.1,4.5 -17.3,3.9c-8,-0.4 -12.1,-2.8 -15.5,-9.1c-2.1,-4.1 -2.2,-5.2 -2.2,-32.2v-28l2.5,-4.5c1.8,-3.2 3.8,-5.2 7,-6.8c7.9,-4 20.5,-2.7 26.2,2.6zM1644.9,452.5c-4.9,2.7 -5.4,5.8 -5.4,33.5c0,22.5 0.2,25.9 1.8,28.7c0.9,1.8 2.7,3.8 3.9,4.4c3.2,1.7 11.4,1.4 14.4,-0.6c4.9,-3.2 5.4,-6.3 5.4,-33c0,-26.4 -0.5,-29.6 -5.1,-32.9c-2.9,-2 -11.4,-2.1 -15,-0.1z" />
		<path id="Layer" class="shp0" d="M1857.3,445.5c-12.4,2.2 -27.5,7.7 -72.8,26.5c-35.4,14.6 -53.1,21.1 -57.4,21.2c-2,0 -5.3,-1 -7.3,-2.2c-4.4,-2.5 -7.8,-1.5 -7.8,2.4c0,4.1 2.5,5.1 12.4,5c8.3,0 10.3,-0.5 22.1,-4.8c40.6,-15 88.3,-30 104,-32.7c13.5,-2.3 34.5,1 47.5,7.6c23.2,11.8 23.3,35.4 0.2,45.7c-10.1,4.5 -28.6,3.3 -41.2,-2.8c-8.3,-3.9 -17.1,-12.2 -18.9,-17.6c-4.9,-14.8 21.6,-21.4 39.2,-9.7c7.5,4.9 8.6,7.4 7.1,15.2c-0.7,3.7 -0.6,3.9 1.7,3.5c5.8,-0.8 7.4,-12.4 2.6,-19.5c-2.7,-4.1 -9.6,-8.9 -15.1,-10.6c-6.3,-1.8 -20.1,-1.5 -26.5,0.7c-18,6.2 -22.5,27.3 -8.5,39.6c11.8,10.3 38.1,15.9 53.5,11.4c8,-2.4 12.6,-5 18.7,-10.7c6.3,-6.1 9.4,-11 11.7,-18.9c0.9,-3.1 2.3,-6.2 3.2,-7c1.3,-1.1 48.6,-1.3 273.2,-1.6c172.8,-0.1 273.4,0.1 276.8,0.7c2.8,0.6 7,2.2 9.3,3.7c5.2,3.4 10.2,2.9 14.3,-1.6c5.6,-6.2 2.2,-17.1 -5.8,-18.6c-4.4,-0.8 -6.6,0 -10.7,4c-2.5,2.5 -4.8,3.6 -7.9,4.1c-2.4,0.3 -126.6,0.5 -276,0.3c-270.1,-0.3 -271.7,-0.3 -273.9,-2.3c-1.2,-1.1 -3.6,-4.9 -5.3,-8.5c-3.5,-7.3 -11.2,-15.7 -17.5,-18.9c-7.2,-3.7 -14.9,-5.1 -26.7,-5c-6,0 -14.2,0.7 -18.2,1.4z" />
		<path id="Layer" class="shp0" d="M893,485.5v40.5h3.4h3.4l11.2,-27.8c6.2,-15.2 11.8,-29.1 12.5,-30.7c1.1,-2.6 1.3,1.6 1.4,27.7l0.1,30.8h4h4v-40.6v-40.5l-3.7,0.3l-3.8,0.3l-12.5,30.7l-12.5,30.6l-0.3,-30.9l-0.2,-30.9h-3.5h-3.5z" />
		<path id="Layer" class="shp0" d="M957.6,475.7c-0.3,17 -0.9,35.2 -1.2,40.5l-0.6,9.8h3.5c3.4,0 3.4,0 4.1,-5.3c0.3,-2.8 0.6,-14.4 0.7,-25.7c0.1,-11.3 0.4,-21.5 0.8,-22.8c0.4,-1.6 2.8,6.3 7.6,25.8l7,28.1l2.9,-0.3l3,-0.3l6.9,-27.8c3.8,-15.3 7.2,-27.6 7.4,-27.3c0.3,0.3 0.8,12.6 1.2,27.5c0.3,14.8 0.9,27.2 1.3,27.6c0.3,0.3 1.9,0.5 3.5,0.3l2.8,-0.3l-0.9,-40.3l-0.8,-40.2h-4.2h-4.2l-8,33.2l-8.1,33.3l-7.2,-29.5c-3.9,-16.2 -7.6,-31.2 -8.2,-33.3c-0.9,-3.5 -1.2,-3.7 -4.8,-3.7h-3.9z" />
		<path id="Layer" class="shp0" d="M1062,485.5v40.5h4h4v-19.5v-19.5h12.5h12.5v19.5v19.5h4h4v-40.5v-40.5h-4h-4v18v18h-12.5h-12.5v-18v-18h-4h-4z" />
		<path id="Layer" class="shp0" d="M1158,445h12.5c10.6,0 13.2,0.3 16.5,2c5.8,3 8.4,8.5 8.4,18c0,8.2 -1.6,12.4 -5.8,15.7l-2.4,1.9l3,1.7c4.6,2.6 7.2,9.6 7.1,19.4c0,9.7 -2.8,16.5 -8.2,20c-3.1,2.1 -4.6,2.3 -17.2,2.3h-13.9zM1172.8,451.2l-6.8,-0.5v29.6l7.4,-0.6c8.9,-0.6 11.3,-1.8 13.2,-6.2c3.1,-7.5 1.2,-17.5 -4,-20.2c-1.7,-0.9 -6.1,-1.8 -9.8,-2.1zM1172.8,486h-6.8v34h6.9c8.7,0 11.6,-1.1 14.1,-5.2c3,-5 2.9,-18.2 -0.3,-22.9c-1.2,-1.8 -3.4,-3.9 -4.7,-4.6c-1.4,-0.7 -5.5,-1.3 -9.2,-1.3z" />
		<path id="Layer" class="shp0" d="M1259.6,448.2c-0.3,1.8 -1.2,13.9 -2.1,26.8c-1.8,25.6 -3.5,37.8 -5.9,41.5c-1,1.4 -3,2.7 -5.1,3.1c-3.1,0.5 -3.5,1 -3.5,3.6v3l5.7,-0.4c9.1,-0.8 11.9,-5.1 14.3,-21.7c1.1,-7.7 4,-44 4,-49.9v-3.2h8.5h8.5v37.5v37.5h4h4v-40.5v-40.5h-16h-15.9z" />
		<path id="Layer" class="shp0" d="M1316,445h9v34h7c10.6,0 17.5,3.6 20.5,10.7c3.5,8.3 2.6,21.8 -1.8,28.5c-1.2,1.8 -4.2,4.3 -6.7,5.6c-3.8,1.9 -6,2.2 -16.2,2.2h-11.8zM1331.5,485.2l-6.5,-0.5v35.6l6.5,-0.5c11,-0.9 14.7,-5.2 14.7,-16.7c0,-7.8 -2,-13.2 -5.6,-15.6c-1.4,-1 -5.5,-2 -9.1,-2.3z" />
		<path id="Layer" class="shp0" d="M1364,485.5v40.5h4h4v-40.5v-40.5h-4h-4z" />
		<path id="Layer" class="shp0" d="M1457,485.5v40.5h15h15v-3v-3h-11h-11v-16.5v-16.5h9h9v-3v-3h-9h-9v-15v-15h11h11v-3v-3h-15h-15z" />
		<path id="Layer" class="shp0" d="M1507,485.5v40.5h4.5h4.5v-19.5v-19.5h12h12v19.5v19.5h4.5h4.5v-40.5v-40.5h-4.5h-4.5v18v18h-12h-12v-18v-18h-4.5h-4.5z" />
		<path id="Layer" class="shp0" d="M1573,485.5v40.5h4h4v-19.5v-19.5h2.8c2.7,0 3.3,1 12.2,19.5l9.3,19.5h4.4h4.3l-1.4,-3.3c-0.8,-1.7 -5.3,-11.2 -10,-20.9l-8.7,-17.8l8.5,-19c4.8,-10.4 8.6,-19.2 8.6,-19.5c0,-0.3 -1.9,-0.5 -4.2,-0.5l-4.3,0.1l-8,18.2c-7.4,16.7 -8.3,18.2 -10.8,18.5l-2.7,0.3v-18.5v-18.6h-4h-4z" />
		<path id="Layer" class="shp0" d="M1012,519.5v6.5h7h7v-6.5v-6.5h-7h-7z" />
		<path id="Layer" class="shp0" d="M1111,519.5v6.5h6.5h6.5v-6.5v-6.5h-6.5h-6.5z" />
		<path id="Layer" class="shp0" d="M1201,519.5v6.5h6.5h6.5v-6.5v-6.5h-6.5h-6.5z" />
	</g>
</svg>