<svg xmlns="http://www.w3.org/2000/svg" viewBox="0 0 2514 528" width="2514" height="528">
	<style>
		tspan { white-space:pre }
		.shp0 { fill: #000000 } 
	</style>
	<g id="Layer">
		<path id="Layer" class="shp0" d="M509.3,12c-10.6,2.2 -17.1,8.4 -20.6,19.5c-2.1,6.7 -2.2,8.5 -2.2,45.5c0,37 0.1,38.8 2.2,45.6c2.7,8.5 8.3,15.4 14.5,17.9c2.4,1 8.1,2 12.9,2.2c22.7,1.4 32.1,-8.7 33.6,-36l0.6,-10.7h-6.5h-6.6l-0.4,11.7c-0.4,13.6 -2.1,18.3 -7.8,22.1c-3,2.1 -4.5,2.3 -11,2c-11.8,-0.5 -16,-4.8 -18.2,-18.4c-1.5,-10.2 -0.5,-75 1.3,-79.7c1.9,-5 6.1,-9.3 10.5,-10.7c5.2,-1.7 14.8,-0.8 18.2,1.7c5.2,3.9 6.5,7.6 7,20l0.5,11.3h6.3h6.4v-6.3c0,-20.1 -6.5,-33.1 -18.2,-36.6c-5.4,-1.7 -17.2,-2.2 -22.5,-1.1z" />
		<path id="Layer" class="shp0" d="M1027.3,12c-10.6,2.2 -17.1,8.4 -20.6,19.5c-2.1,6.7 -2.2,8.5 -2.2,45.5c0,37 0.1,38.8 2.2,45.6c2.7,8.5 8.3,15.4 14.5,17.9c2.4,1 8.1,2 12.9,2.2c22.7,1.4 32.1,-8.7 33.6,-36l0.6,-10.7h-6.5h-6.6l-0.4,11.7c-0.4,13.6 -2.1,18.3 -7.8,22.1c-3,2.1 -4.5,2.3 -11,2c-11.8,-0.5 -16,-4.8 -18.2,-18.4c-1.5,-10.2 -0.5,-75 1.3,-79.7c1.9,-5 6.1,-9.3 10.5,-10.7c5.2,-1.7 14.8,-0.8 18.2,1.7c5.2,3.9 6.5,7.6 7,20l0.5,11.3h6.3h6.4v-6.3c0,-20.1 -6.5,-33.1 -18.2,-36.6c-5.4,-1.7 -17.2,-2.2 -22.5,-1.1z" />
		<path id="Layer" class="shp0" d="M1868.1,12c-6.1,1.3 -12.7,5.5 -15.7,9.9c-3.1,4.7 -5.4,12.9 -5.4,19.3v4.8h5.9h6l0.6,-4.8c1.1,-8.7 1.7,-10.2 4.3,-13.4c1.4,-1.7 4.1,-3.7 5.9,-4.4c4.7,-2 13.2,-1.8 17.3,0.5c7,3.7 10.5,16.3 8.1,28.3c-2.4,11.4 -7.8,15.9 -20.2,16.6l-7.9,0.5v4.8v4.9h3.5c11.3,0 19.8,5 23.2,13.8c2.5,6.5 2.5,21.9 0,28.4c-4,10.2 -14.8,14.2 -24.9,9.1c-3.8,-1.9 -6.8,-8.2 -7.5,-15.8l-0.6,-6.5h-6h-6l0.5,7.9c1.1,19.2 11.8,28.2 31.8,26.8c16.3,-1.1 24.7,-10.1 27.1,-28.7c2,-16.3 -2.1,-30.2 -10.8,-36.5c-2.3,-1.6 -4.2,-3.2 -4.2,-3.5c0,-0.3 1.4,-1.2 3.2,-2.1c3.8,-1.8 9.2,-9.4 10.8,-15.2c1.9,-6.6 1.6,-20.3 -0.6,-26.7c-2.2,-6.7 -10.1,-14.9 -16,-16.8c-5.4,-1.7 -17,-2.3 -22.4,-1.2z" />
		<path id="Layer" class="shp0" d="M2009,14.1c7.2,3.1 12.5,9.5 15.3,18.3c2.1,6.8 2.2,8.6 2.2,44.6c0,33.3 -0.2,38.2 -1.8,43.5c-5,16.6 -15.7,23.4 -35.2,22.3c-14.9,-0.9 -23.2,-6.7 -27.7,-19.7c-2.2,-6.4 -2.3,-7.6 -2.3,-46.1c0,-35.4 0.2,-40.1 1.8,-45c3.7,-11.2 10.7,-17.6 21.8,-20c7,-1.5 20,-0.4 25.9,2.1zM1978.9,26.6c-6.1,5.9 -6.4,7.9 -6.4,50.9v39l2.7,5.7c3.7,7.9 8.1,10.1 18.9,9.6c9.1,-0.4 12,-2 15.9,-8.9l2.5,-4.4v-83l-2.5,-4.5c-1.8,-3.2 -3.8,-5.2 -7,-6.8c-7.6,-3.8 -18.8,-2.7 -24.1,2.4z" />
		<path id="Layer" class="shp0" d="M70,77v64h6.5h6.5v-31.1v-31l4.1,0.3l4.2,0.3l14.7,30.5l14.7,30.5l6.6,0.3c3.7,0.2 6.7,-0.1 6.7,-0.5c0,-0.4 -7,-15.2 -15.6,-32.8c-9.9,-20.4 -15.3,-32.7 -15,-34c0.3,-1.1 6.4,-15 13.6,-30.8c7.1,-15.9 13,-29.1 13,-29.3c0,-0.3 -3,-0.4 -6.7,-0.2l-6.8,0.3l-12.7,28.5l-12.7,28.5l-4.1,0.3l-4,0.3v-29v-29.1h-6.5h-6.5z" />
		<path id="Layer" class="shp0" d="M182,77.1v64l5.2,-0.3l5.3,-0.3l19.5,-48.3l19.5,-48.3l0.3,48.6l0.2,48.5h6h6v-64v-64h-5.3h-5.2l-20,49.1l-20,49l-0.3,-49l-0.2,-49.1h-5.5h-5.5z" />
		<path id="Layer" class="shp0" d="M374,13h18.9c20.4,0 24.4,0.7 30.8,5.6c1.8,1.4 4.6,4.9 6.1,7.7c2.5,4.9 2.7,6 2.7,18.2c0,11.7 -0.2,13.5 -2.4,17.8c-1.4,3 -3.8,5.8 -6.2,7.4l-3.9,2.6l2.7,1.4c4.6,2.3 8,6.2 10.4,11.7c1.9,4.2 2.4,7.3 2.7,17.3c0.5,15.5 -1.7,24 -7.9,30.8c-6.2,6.7 -9.6,7.5 -33.6,7.5h-20.3zM397.8,23.2l-10.8,-0.4v45.5l11.3,-0.5c13.8,-0.5 17,-2 20.6,-9.2c1.9,-3.8 2.4,-6.4 2.4,-13c0.1,-10.5 -2.7,-16.9 -8.8,-20c-3.1,-1.6 -6.4,-2.2 -14.7,-2.4zM397.8,78h-10.8v53.2l12.9,-0.4c15.1,-0.4 17,-1.2 21.1,-9.3c2.1,-4.3 2.4,-6.3 2.5,-16c0,-10.3 -0.2,-11.4 -3,-17c-2.4,-4.7 -3.9,-6.4 -7.4,-8.2c-3.8,-2 -5.9,-2.3 -15.3,-2.3z" />
		<path id="Layer" class="shp0" d="M604,13h13v52.7l10.8,0.6c18.9,1 26.7,4.9 32.3,16.3c3,6.1 3.3,7.6 3.7,18.5c0.4,9.9 0.1,12.8 -1.7,18.7c-2.6,8.6 -7.9,15 -15.3,18.3c-4.9,2.2 -6.9,2.4 -24,2.7l-18.8,0.4zM626.3,76.3l-9.3,-0.6v55.3h9.3c16.3,0 22.6,-5 24.7,-19.9c1,-7.4 0.2,-16.9 -2,-22.6c-1.5,-4.1 -5.8,-8.4 -10,-10.1c-1.9,-0.8 -7.6,-1.8 -12.7,-2.1z" />
		<path id="Layer" class="shp0" d="M715,77v64h6.5h6.5v-31.1v-31l4.1,0.3l4.2,0.3l14.7,30.5l14.7,30.5l6.6,0.3c3.7,0.2 6.7,-0.1 6.7,-0.5c0,-0.4 -7,-15.2 -15.6,-32.8c-9.9,-20.4 -15.3,-32.7 -15,-34c0.3,-1.1 6.4,-15 13.6,-30.8c7.1,-15.9 13,-29.1 13,-29.3c0,-0.3 -3,-0.4 -6.7,-0.2l-6.8,0.3l-12.7,28.5l-12.7,28.5l-4.1,0.3l-4,0.3v-29v-29.1h-6.5h-6.5z" />
		<path id="Layer" class="shp0" d="M853.9,13c5.8,0 7.1,0.3 7.5,1.7c0.6,2.2 26.6,125 26.6,125.7c0,0.3 -2.9,0.6 -6.4,0.6h-6.3l-2.7,-14.3c-1.5,-7.8 -2.9,-15.4 -3.2,-17l-0.6,-2.7h-29.4l-2.9,16.1c-1.7,8.8 -3.3,16.5 -3.6,17c-0.3,0.6 -3.3,0.9 -6.6,0.7l-6,-0.3l13.3,-63c7.4,-34.7 13.4,-63.3 13.4,-63.8c0,-0.4 3.1,-0.7 6.9,-0.7zM853.7,35c-0.3,0.8 -3.1,14.5 -6.2,30.5c-3.1,15.9 -5.8,29.8 -6.1,30.7c-0.5,1.7 0.6,1.8 12.5,1.8c9.8,0 13.1,-0.3 13.1,-1.3c-0.2,-4.1 -12.8,-62.9 -13.3,-61.7z" />
		<path id="Layer" class="shp0" d="M1122,77v64h6.5h6.5v-59v-59h20h20v59v59h6.5h6.5v-64v-64h-33h-33z" />
		<path id="Layer" class="shp0" d="M1246,77v64h23.5h23.5v-5v-5h-17h-17v-25.5v-25.5h14h14v-5v-5h-14h-14v-23.5v-23.5h17h17v-5v-5h-23.5h-23.5z" />
		<path id="Layer" class="shp0" d="M1344,77v64h32.4h32.3l0.7,3.7c0.3,2.1 0.6,7.1 0.6,11v7.3h5.5h5.5v-16v-16h-5h-5v-59v-59h-6.5h-6.5v59v59h-20.5h-20.5v-59v-59h-6.5h-6.5z" />
		<path id="Layer" class="shp0" d="M1472,77v64h6.5h6.5v-64v-64h-6.5h-6.5z" />
		<path id="Layer" class="shp0" d="M1569.9,13c5.8,0 7.1,0.3 7.5,1.7c0.6,2.2 26.6,125 26.6,125.7c0,0.3 -2.9,0.6 -6.4,0.6h-6.3l-2.7,-14.3c-1.5,-7.8 -2.9,-15.4 -3.2,-17l-0.6,-2.7h-29.4l-2.9,16.1c-1.7,8.8 -3.3,16.5 -3.6,17c-0.3,0.6 -3.3,0.9 -6.6,0.7l-6,-0.3l13.3,-63c7.4,-34.7 13.4,-63.3 13.4,-63.8c0,-0.4 3.1,-0.7 6.9,-0.7zM1569.7,35c-0.3,0.8 -3.1,14.5 -6.2,30.5c-3.1,15.9 -5.8,29.8 -6.1,30.7c-0.5,1.7 0.6,1.8 12.5,1.8c9.8,0 13.1,-0.3 13.1,-1.3c-0.2,-4.1 -12.8,-62.9 -13.3,-61.7z" />
		<path id="Layer" class="shp0" d="M1671,13.8c0,3.7 -4.3,62.1 -5.5,74.7c-3.3,34.3 -5.8,41.1 -15.9,42.2l-4.6,0.6v5.3c0,6.2 0.2,6.3 10.1,4.4c17.3,-3.3 21,-15.3 25.4,-83.5c0.8,-13.2 1.8,-26.4 2.1,-29.3l0.5,-5.2h13h12.9v59v59h6.5h6.5v-64v-64h-25.5c-14,0 -25.5,0.4 -25.5,0.8z" />
		<path id="Layer" class="shp0" d="M1780,77v64h6.5h6.5v-64v-64h-6.5h-6.5z" />
		<path id="Layer" class="shp0" d="M2082,13h18.9c20.4,0 24.4,0.7 30.8,5.6c1.8,1.4 4.6,4.9 6.1,7.7c2.5,4.9 2.7,6 2.7,18.2c0,11.7 -0.2,13.5 -2.4,17.8c-1.4,3 -3.8,5.8 -6.2,7.4l-3.9,2.6l2.7,1.4c4.6,2.3 8,6.2 10.4,11.7c1.9,4.2 2.4,7.3 2.7,17.3c0.5,15.5 -1.7,24 -7.9,30.8c-6.2,6.7 -9.6,7.5 -33.6,7.5h-20.3zM2105.8,23.2l-10.8,-0.4v45.5l11.3,-0.5c13.8,-0.5 17,-2 20.6,-9.2c1.9,-3.8 2.4,-6.4 2.4,-13c0.1,-10.5 -2.7,-16.9 -8.8,-20c-3.1,-1.6 -6.4,-2.2 -14.7,-2.4zM2105.8,78h-10.8v53.2l12.9,-0.4c15.1,-0.4 17,-1.2 21.1,-9.3c2.1,-4.3 2.4,-6.3 2.5,-16c0,-10.3 -0.2,-11.4 -3,-17c-2.4,-4.7 -3.9,-6.4 -7.4,-8.2c-3.8,-2 -5.9,-2.3 -15.3,-2.3z" />
		<path id="Layer" class="shp0" d="M2222.9,13c5.8,0 7.1,0.3 7.5,1.7c0.6,2.2 26.6,125 26.6,125.7c0,0.3 -2.9,0.6 -6.4,0.6h-6.3l-2.7,-14.3c-1.5,-7.8 -2.9,-15.4 -3.2,-17l-0.6,-2.7h-29.4l-2.9,16.1c-1.7,8.8 -3.3,16.5 -3.6,17c-0.3,0.6 -3.3,0.9 -6.6,0.7l-6,-0.3l13.3,-63c7.4,-34.7 13.4,-63.3 13.4,-63.8c0,-0.4 3.1,-0.7 6.9,-0.7zM2222.7,35c-0.3,0.8 -3.1,14.5 -6.2,30.5c-3.1,15.9 -5.8,29.8 -6.1,30.7c-0.5,1.7 0.6,1.8 12.5,1.8c9.8,0 13.1,-0.3 13.1,-1.3c-0.2,-4.1 -12.8,-62.9 -13.3,-61.7z" />
		<path id="Layer" class="shp0" d="M2308,77v64h6.5h6.5v-31v-31h19.5h19.5v31v31h6.5h6.5v-64v-64h-6.5h-6.5v28v28h-19.5h-19.5v-28v-28h-6.5h-6.5z" />
		<path id="Layer" class="shp0" d="M2456.9,13c5.8,0 7.1,0.3 7.5,1.7c0.6,2.2 26.6,125 26.6,125.7c0,0.3 -2.9,0.6 -6.4,0.6h-6.3l-2.7,-14.3c-1.5,-7.8 -2.9,-15.4 -3.2,-17l-0.6,-2.7h-29.4l-2.9,16.1c-1.7,8.8 -3.3,16.5 -3.6,17c-0.3,0.6 -3.3,0.9 -6.6,0.7l-6,-0.3l13.3,-63c7.4,-34.7 13.4,-63.3 13.4,-63.8c0,-0.4 3.1,-0.7 6.9,-0.7zM2456.7,35c-0.3,0.8 -3.1,14.5 -6.2,30.5c-3.1,15.9 -5.8,29.8 -6.1,30.7c-0.5,1.7 0.6,1.8 12.5,1.8c9.8,0 13.1,-0.3 13.1,-1.3c-0.2,-4.1 -12.8,-62.9 -13.3,-61.7z" />
		<path id="Layer" class="shp0" d="M302,80v61h6.5h6.5v-61v-61h-6.5h-6.5z" />
		<path id="Layer" class="shp0" d="M93.3,222c-10.6,2.2 -17.1,8.4 -20.6,19.5c-2.1,6.7 -2.2,8.5 -2.2,45.5c0,37 0.1,38.8 2.2,45.6c2.7,8.5 8.3,15.4 14.5,17.9c2.4,1 8.1,2 12.9,2.2c22.7,1.4 32.1,-8.7 33.6,-36l0.6,-10.7h-6.5h-6.6l-0.4,11.7c-0.4,13.6 -2.1,18.3 -7.8,22.1c-3,2.1 -4.5,2.3 -11,2c-11.8,-0.5 -16,-4.8 -18.2,-18.4c-1.5,-10.2 -0.5,-75 1.3,-79.7c1.9,-5 6.1,-9.3 10.5,-10.7c5.2,-1.7 14.8,-0.8 18.2,1.7c5.2,3.9 6.5,7.6 7,20l0.5,11.3h6.3h6.4v-6.3c0,-20.1 -6.5,-33.1 -18.2,-36.6c-5.4,-1.7 -17.2,-2.2 -22.5,-1.1z" />
		<path id="Layer" class="shp0" d="M915.1,222c-6.1,1.3 -12.7,5.5 -15.7,9.9c-3.1,4.7 -5.4,12.9 -5.4,19.3v4.8h5.9h6l0.6,-4.8c1.1,-8.7 1.7,-10.2 4.3,-13.4c1.4,-1.7 4.1,-3.7 5.9,-4.4c4.7,-2 13.2,-1.8 17.3,0.5c7,3.7 10.5,16.3 8.1,28.3c-2.4,11.4 -7.8,15.9 -20.2,16.6l-7.9,0.5v4.8v4.9h3.5c11.3,0 19.8,5 23.2,13.8c2.5,6.5 2.5,21.9 0,28.4c-4,10.2 -14.8,14.2 -24.9,9.1c-3.8,-1.9 -6.8,-8.2 -7.5,-15.8l-0.6,-6.5h-6h-6l0.5,7.9c1.1,19.2 11.8,28.2 31.8,26.8c16.3,-1.1 24.7,-10.1 27.1,-28.7c2,-16.3 -2.1,-30.2 -10.8,-36.5c-2.3,-1.6 -4.2,-3.2 -4.2,-3.5c0,-0.3 1.4,-1.2 3.2,-2.1c3.8,-1.8 9.2,-9.4 10.8,-15.2c1.9,-6.6 1.6,-20.3 -0.6,-26.7c-2.2,-6.7 -10.1,-14.9 -16,-16.8c-5.4,-1.7 -17,-2.3 -22.4,-1.2z" />
		<path id="Layer" class="shp0" d="M1631,224.1c7.2,3.1 12.5,9.5 15.3,18.3c2.1,6.8 2.2,8.6 2.2,44.6c0,33.3 -0.2,38.2 -1.8,43.5c-5,16.6 -15.7,23.4 -35.2,22.3c-14.9,-0.9 -23.2,-6.7 -27.7,-19.7c-2.2,-6.4 -2.3,-7.6 -2.3,-46.1c0,-35.4 0.2,-40.1 1.8,-45c3.7,-11.2 10.7,-17.6 21.8,-20c7,-1.5 20,-0.4 25.9,2.1zM1600.9,236.6c-6.1,5.9 -6.4,7.9 -6.4,50.9v39l2.7,5.7c3.7,7.9 8.1,10.1 18.9,9.6c9.1,-0.4 12,-2 15.9,-8.9l2.5,-4.4v-83l-2.5,-4.5c-1.8,-3.2 -3.8,-5.2 -7,-6.8c-7.6,-3.8 -18.8,-2.7 -24.1,2.4z" />
		<path id="Layer" class="shp0" d="M159,287v64h23.5h23.5v-5v-5h-17h-17v-25.5v-25.5h14h14v-5v-5h-14h-14v-23.5v-23.5h17h17v-5v-5h-23.5h-23.5z" />
		<path id="Layer" class="shp0" d="M229,222.9l21.8,0.3c20.1,0.3 22,0.5 25.8,2.5c5.4,2.9 8.7,7 11.5,14c1.8,4.7 2.2,7.8 2.2,16.8c0,16.5 -4.1,25.3 -14.5,31.1c-5,2.7 -6.1,2.9 -19.5,3.2l-14.3,0.4v59.8h-13zM254.9,233.2l-12.9,-0.4v48.4l11.8,-0.4c14.4,-0.5 17.5,-1.9 21.2,-9.3c2.2,-4.4 2.5,-6.3 2.5,-15.5c0,-11.8 -1.7,-16.7 -6.8,-20.4c-2.5,-1.8 -4.6,-2.1 -15.8,-2.4z" />
		<path id="Layer" class="shp0" d="M312,287v64h23.5h23.5v-5v-5h-17h-17v-25.5v-25.5h14h14v-5v-5h-14h-14v-23.5v-23.5h17h17v-5v-5h-23.5h-23.5z" />
		<path id="Layer" class="shp0" d="M400.4,223h49.6v118h10v32h-4.9c-5.9,0 -6.1,-0.4 -6.1,-13.3v-8.7h-64.7l-0.7,3.1c-0.3,1.7 -0.6,6.7 -0.6,11v7.9h-11v-32h3c4,0 9.3,-4.8 12.4,-11.3c5,-10.3 8.2,-32.9 11.2,-80zM437,233h-12.5c-9.5,0 -12.5,0.3 -12.5,1.3c0,4.2 -4.2,58.6 -5,65.5c-2.7,21.4 -5.6,31 -11.5,38.1l-2.7,3.1h44.2z" />
		<path id="Layer" class="shp0" d="M483,287v64h6.5h6.5v-31v-31h19.5h19.5v31v31h6.5h6.5v-64v-64h-6.5h-6.5v28v28h-19.5h-19.5v-28v-28h-6.5h-6.5z" />
		<path id="Layer" class="shp0" d="M620.8,223.1l19.2,-0.1v128h-13v-54.1l-21.4,0.6l-11,26.7l-11.1,26.8h-7.2c-4,0 -7.3,-0.4 -7.3,-0.8c0,-0.5 5.6,-13.4 12.5,-28.7c11.4,-25.3 12.4,-28 10.8,-28.8c-4.5,-2.5 -11.1,-10.5 -13.3,-16.2c-2,-5.1 -2.4,-7.9 -2.4,-18c-0.1,-11.1 0.1,-12.4 2.7,-18c4.3,-9.2 8.7,-13.1 18.2,-16.1c2.6,-0.8 10.7,-1.3 23.3,-1.3zM627,233h-11.2c-13,0 -17.9,1.6 -22.1,7.1c-5.8,7.7 -6.4,25 -1.1,35.5c4.2,8.5 9,10.8 23.6,11.3l10.8,0.3z" />
		<path id="Layer" class="shp0" d="M712,223.2c-0.3,1.2 -2.9,106.1 -3,115.5v12.3h5.4h5.4l0.7,-41.8c0.4,-22.9 1,-43.4 1.4,-45.5c0.5,-3.2 2.4,3.6 12,41.8l11.4,45.6l4.5,-0.3l4.6,-0.3l11.5,-46l11.6,-46l0.7,17.5c0.4,9.6 1,30.4 1.4,46.2l0.6,28.8h5.4h5.4v-3.3c0,-1.7 -0.7,-27.5 -1.5,-57.2c-0.8,-29.7 -1.5,-57 -1.5,-60.8v-6.7h-6.3h-6.4l-5.5,22.7c-3.1,12.6 -8.8,36.2 -12.8,52.6c-4,16.4 -7.4,29.6 -7.5,29.5c-0.1,-0.2 -5.7,-23 -12.4,-50.8c-6.7,-27.8 -12.5,-51.3 -12.7,-52.3c-0.4,-1.4 -1.7,-1.7 -6.5,-1.7c-3.2,0 -5.9,0.1 -5.9,0.2z" />
		<path id="Layer" class="shp0" d="M812,223.4c0,0.3 6.1,25.4 13.6,55.8c12.3,50.4 13.5,55.9 13.1,62.3c-0.8,12.1 -3.5,15.1 -15.2,16.2l-6.5,0.6v4.8v4.9h6.5c15,0 21.9,-3.9 24.8,-14c1.3,-4.5 28.7,-129.2 28.7,-130.6c0,-0.2 -2.9,-0.4 -6.3,-0.4h-6.4l-5.3,25.7c-2.9,14.2 -7,35.2 -9.1,46.7c-2.1,11.4 -4,21 -4.2,21.2c-0.2,0.2 -2,-7.8 -4.1,-17.9c-2,-10 -6.6,-30.8 -10.2,-46.3c-3.5,-15.4 -6.4,-28.4 -6.4,-28.7c0,-0.4 -2.9,-0.7 -6.5,-0.7c-3.6,0 -6.5,0.2 -6.5,0.4z" />
		<path id="Layer" class="shp0" d="M980,287.1v64l5.2,-0.3l5.3,-0.3l19.5,-48.3l19.5,-48.3l0.3,48.6l0.2,48.5h6h6v-64v-64h-5.3h-5.2l-20,49.1l-20,49l-0.3,-49l-0.2,-49.1h-5.5h-5.5z" />
		<path id="Layer" class="shp0" d="M1069,247.8c0,28.8 0.7,32.9 6.9,39.1c5.3,5.3 12.3,7.5 23.6,7.6c5,0 11.4,-0.4 14.3,-0.8l5.2,-0.9v29.1v29.1h6.5h6.5v-64v-64h-6.5h-6.5v30v29.9l-4.2,1.2c-2.4,0.6 -7.8,1.1 -12,1.2c-9.5,0 -16.2,-2.9 -19.3,-8.3c-1.8,-3.2 -2,-5.6 -2.3,-28.8l-0.3,-25.2h-6h-5.9z" />
		<path id="Layer" class="shp0" d="M1161,287v64h6.5h6.5v-31v-31h19.5h19.5v31v31h6.5h6.5v-64v-64h-6.5h-6.5v28v28h-19.5h-19.5v-28v-28h-6.5h-6.5z" />
		<path id="Layer" class="shp0" d="M1281.9,223c5.8,0 7.1,0.3 7.5,1.7c0.6,2.2 26.6,125 26.6,125.7c0,0.3 -2.9,0.6 -6.4,0.6h-6.3l-2.7,-14.3c-1.5,-7.8 -2.9,-15.4 -3.2,-17l-0.6,-2.7h-29.4l-2.9,16.1c-1.7,8.8 -3.3,16.5 -3.6,17c-0.3,0.6 -3.3,0.9 -6.6,0.7l-6,-0.3l13.3,-63c7.4,-34.7 13.4,-63.3 13.4,-63.8c0,-0.4 3.1,-0.7 6.9,-0.7zM1281.7,245c-0.3,0.8 -3.1,14.5 -6.2,30.5c-3.1,15.9 -5.8,29.8 -6.1,30.7c-0.5,1.7 0.6,1.8 12.5,1.8c9.8,0 13.1,-0.3 13.1,-1.3c-0.2,-4.1 -12.8,-62.9 -13.3,-61.7z" />
		<path id="Layer" class="shp0" d="M1378,287v64h46h46v-64v-64h-6.5h-6.5v59v59h-13h-13v-59v-59h-6.5h-6.5v59v59h-13.5h-13.5v-59v-59h-6.5h-6.5z" />
		<path id="Layer" class="shp0" d="M1500,287v64h6.5h6.5v-31.1v-31l4.1,0.3l4.2,0.3l14.7,30.5l14.7,30.5l6.6,0.3c3.7,0.2 6.7,-0.1 6.7,-0.5c0,-0.4 -7,-15.2 -15.6,-32.8c-9.9,-20.4 -15.3,-32.7 -15,-34c0.3,-1.1 6.4,-15 13.6,-30.8c7.1,-15.9 13,-29.1 13,-29.3c0,-0.3 -3,-0.4 -6.7,-0.2l-6.8,0.3l-12.7,28.5l-12.7,28.5l-4.1,0.3l-4,0.3v-29v-29.1h-6.5h-6.5z" />
		<path id="Layer" class="shp0" d="M1693,223.8c0,3.7 -4.3,62.1 -5.5,74.7c-3.3,34.3 -5.8,41.1 -15.9,42.2l-4.6,0.6v5.3c0,6.2 0.2,6.3 10.1,4.4c17.3,-3.3 21,-15.3 25.4,-83.5c0.8,-13.2 1.8,-26.4 2.1,-29.3l0.5,-5.2h13h12.9v59v59h6.5h6.5v-64v-64h-25.5c-14,0 -25.5,0.4 -25.5,0.8z" />
		<path id="Layer" class="shp0" d="M1798.9,223c5.8,0 7.1,0.3 7.5,1.7c0.6,2.2 26.6,125 26.6,125.7c0,0.3 -2.9,0.6 -6.4,0.6h-6.3l-2.7,-14.3c-1.5,-7.8 -2.9,-15.4 -3.2,-17l-0.6,-2.7h-29.4l-2.9,16.1c-1.7,8.8 -3.3,16.5 -3.6,17c-0.3,0.6 -3.3,0.9 -6.6,0.7l-6,-0.3l13.3,-63c7.4,-34.7 13.4,-63.3 13.4,-63.8c0,-0.4 3.1,-0.7 6.9,-0.7zM1798.7,245c-0.3,0.8 -3.1,14.5 -6.2,30.5c-3.1,15.9 -5.8,29.8 -6.1,30.7c-0.5,1.7 0.6,1.8 12.5,1.8c9.8,0 13.1,-0.3 13.1,-1.3c-0.2,-4.1 -12.8,-62.9 -13.3,-61.7z" />
		<path id="Layer" class="shp0" d="M1910,287v64h6.5h6.5v-64v-64h-6.5h-6.5z" />
		<path id="Layer" class="shp0" d="M1953,287v64h6.5h6.5v-31v-31h19.5h19.5v31v31h6.5h6.5v-64v-64h-6.5h-6.5v28v28h-19.5h-19.5v-28v-28h-6.5h-6.5z" />
		<path id="Layer" class="shp0" d="M2037,228v5h13h13v59v59h6.5h6.5v-59v-59h12.5h12.5v-5v-5h-32h-32z" />
		<path id="Layer" class="shp0" d="M2117,287v64h23.5h23.5v-5v-5h-17h-17v-25.5v-25.5h14h14v-5v-5h-14h-14v-23.5v-23.5h17h17v-5v-5h-23.5h-23.5z" />
		<path id="Layer" class="shp0" d="M2186,222.9l21.8,0.3c20.1,0.3 22,0.5 25.8,2.5c5.4,2.9 8.7,7 11.5,14c1.8,4.7 2.2,7.8 2.2,16.8c0,16.5 -4.1,25.3 -14.5,31.1c-5,2.7 -6.1,2.9 -19.5,3.2l-14.3,0.4v59.8h-13zM2211.9,233.2l-12.9,-0.4v48.4l11.8,-0.4c14.4,-0.5 17.5,-1.9 21.2,-9.3c2.2,-4.4 2.5,-6.3 2.5,-15.5c0,-11.8 -1.7,-16.7 -6.8,-20.4c-2.5,-1.8 -4.6,-2.1 -15.8,-2.4z" />
		<path id="Layer" class="shp0" d="M2270,287v64h6.5h6.5v-31v-31h19.5h19.5v31v31h6.5h6.5v-64v-64h-6.5h-6.5v28v28h-19.5h-19.5v-28v-28h-6.5h-6.5z" />
		<path id="Layer" class="shp0" d="M2389.9,223c5.8,0 7.1,0.3 7.5,1.7c0.6,2.2 26.6,125 26.6,125.7c0,0.3 -2.9,0.6 -6.4,0.6h-6.3l-2.7,-14.3c-1.5,-7.8 -2.9,-15.4 -3.2,-17l-0.6,-2.7h-29.4l-2.9,16.1c-1.7,8.8 -3.3,16.5 -3.6,17c-0.3,0.6 -3.3,0.9 -6.6,0.7l-6,-0.3l13.3,-63c7.4,-34.7 13.4,-63.3 13.4,-63.8c0,-0.4 3.1,-0.7 6.9,-0.7zM2389.7,245c-0.3,0.8 -3.1,14.5 -6.2,30.5c-3.1,15.9 -5.8,29.8 -6.1,30.7c-0.5,1.7 0.6,1.8 12.5,1.8c9.8,0 13.1,-0.3 13.1,-1.3c-0.2,-4.1 -12.8,-62.9 -13.3,-61.7z" />
		<path id="Layer" class="shp0" d="M2430,228v5h13h13v59v59h6.5h6.5v-59v-59h12.5h12.5v-5v-5h-32h-32z" />
		<path id="Layer" class="shp0" d="M1850,299.5v5.5h17.5h17.5v-5.5v-5.5h-17.5h-17.5z" />
		<path id="Layer" class="shp0" d="M680.3,444.5c-12.1,3.3 -21.7,11.3 -27,22.5c-1.7,3.6 -4.1,7.4 -5.3,8.5c-2.2,2 -3.8,2 -273.9,2.3c-149.4,0.2 -273.6,0 -276,-0.3c-3.1,-0.5 -5.4,-1.6 -7.9,-4.1c-4.1,-4 -6.3,-4.8 -10.7,-4c-8,1.5 -11.4,12.4 -5.7,18.6c4,4.5 9,5 14.2,1.6c2.3,-1.5 6.5,-3.1 9.3,-3.7c3.4,-0.6 104,-0.8 276.8,-0.7c224.6,0.3 271.9,0.5 273.2,1.6c0.9,0.8 2.3,3.9 3.2,7c2.3,7.9 5.4,12.8 11.7,18.9c12,11.3 26.9,14.7 46.6,10.7c23.9,-4.8 37,-18.5 33.2,-34.6c-1.7,-6.9 -8.4,-13.7 -16.1,-16.4c-6.4,-2.2 -20.2,-2.5 -26.5,-0.7c-5.5,1.7 -12.4,6.5 -15.1,10.6c-4.8,7.1 -3.2,18.7 2.6,19.5c2.3,0.4 2.4,0.2 1.7,-3.5c-1.5,-7.8 -0.4,-10.3 7.1,-15.2c13.5,-9 34.7,-7.6 38.9,2.5c2.1,5.1 0.4,9.6 -6.2,16.1c-9.8,9.8 -25.1,15 -41.3,14.1c-27.2,-1.6 -39.1,-26.4 -20.6,-42.7c11.4,-10 38.1,-16.3 56,-13.2c15.7,2.7 63.4,17.7 104,32.7c11.8,4.3 13.8,4.8 22.1,4.8c9.9,0.1 12.4,-0.9 12.4,-5c0,-3.9 -3.4,-4.9 -7.8,-2.4c-2,1.2 -5.3,2.2 -7.3,2.2c-4.4,-0.1 -22,-6.6 -57.4,-21.3c-60,-24.8 -70.5,-28 -92.4,-27.8c-5.8,0 -13,0.7 -15.8,1.4z" />
		<path id="Layer" class="shp0" d="M1388,446.2c-3.4,1.8 -5.1,3.5 -7,7.3c-2.5,5 -2.5,5.2 -2.5,31.5c0,30.2 0.7,33.7 7.3,38.8c3.3,2.5 4.3,2.7 12.8,2.7c7.8,0 9.7,-0.3 12.1,-2.1c4.5,-3.3 6.7,-8.8 7.1,-18.2l0.4,-8.2h-3.5h-3.5l-0.7,7.2c-1.2,11.7 -3.9,15.1 -12.1,15c-10.1,-0.2 -11.6,-3.9 -12.2,-29.2c-0.2,-10.8 0.1,-22.8 0.6,-27c0.9,-6.4 1.5,-7.9 4.2,-10.3c4.1,-3.6 11.6,-3.8 15.5,-0.4c2.2,1.9 2.8,3.5 3.7,10.5l1.1,8.2h3.3h3.4v-7.3c0,-8.3 -2.6,-14.7 -7.3,-18.1c-4.4,-3.3 -16.7,-3.5 -22.7,-0.4z" />
		<path id="Layer" class="shp0" d="M1857.3,445.5c-12.4,2.2 -27.5,7.7 -72.8,26.5c-35.4,14.6 -53.1,21.1 -57.4,21.2c-2,0 -5.3,-1 -7.3,-2.2c-4.4,-2.5 -7.8,-1.5 -7.8,2.4c0,4.1 2.5,5.1 12.4,5c8.3,0 10.3,-0.5 22.1,-4.8c40.6,-15 88.3,-30 104,-32.7c13.5,-2.3 34.5,1 47.5,7.6c23.2,11.8 23.3,35.4 0.2,45.7c-10.1,4.5 -28.6,3.3 -41.2,-2.8c-8.3,-3.9 -17.1,-12.2 -18.9,-17.6c-4.9,-14.8 21.6,-21.4 39.2,-9.7c7.5,4.9 8.6,7.4 7.1,15.2c-0.7,3.7 -0.6,3.9 1.7,3.5c5.8,-0.8 7.4,-12.4 2.6,-19.5c-2.7,-4.1 -9.6,-8.9 -15.1,-10.6c-6.3,-1.8 -20.1,-1.5 -26.5,0.7c-18,6.2 -22.5,27.3 -8.5,39.6c11.8,10.3 38.1,15.9 53.5,11.4c8,-2.4 12.6,-5 18.7,-10.7c6.3,-6.1 9.4,-11 11.7,-18.9c0.9,-3.1 2.3,-6.2 3.2,-7c1.3,-1.1 48.6,-1.3 273.2,-1.6c172.8,-0.1 273.4,0.1 276.8,0.7c2.8,0.6 7,2.2 9.3,3.7c5.2,3.4 10.2,2.9 14.3,-1.6c5.6,-6.2 2.2,-17.1 -5.8,-18.6c-4.4,-0.8 -6.6,0 -10.7,4c-2.5,2.5 -4.8,3.6 -7.9,4.1c-2.4,0.3 -126.6,0.5 -276,0.3c-270.1,-0.3 -271.7,-0.3 -273.9,-2.3c-1.2,-1.1 -3.6,-4.9 -5.3,-8.5c-3.5,-7.3 -11.2,-15.7 -17.5,-18.9c-7.2,-3.7 -14.9,-5.1 -26.7,-5c-6,0 -14.2,0.7 -18.2,1.4z" />
		<path id="Layer" class="shp0" d="M916,485.5v40.5h4h4v-40.5v-40.5h-4h-4z" />
		<path id="Layer" class="shp0" d="M949.6,465.7c-0.3,11.5 -0.9,29.7 -1.2,40.5l-0.6,19.8h3.4h3.5l0.6,-13.7c0.4,-7.5 0.7,-20.9 0.8,-29.7l0.1,-16.1l7.5,29.7l7.5,29.8h2.9c2.4,0 3,-0.5 3.8,-3.8c0.6,-2 3.8,-15 7.3,-28.7l6.3,-25l0.6,13.5c0.4,7.4 0.7,20.4 0.8,28.7l0.1,15.3h3.6h3.6l-0.6,-31.7c-0.3,-17.5 -0.9,-35.7 -1.2,-40.6l-0.6,-8.7h-3.8h-3.8l-7.6,31.2c-4.2,17.2 -7.6,31.9 -7.6,32.5c0,0.7 -0.4,1.3 -1,1.3c-0.5,0 -1,-0.6 -1,-1.3c0,-0.6 -3.4,-15.3 -7.6,-32.5l-7.6,-31.2h-3.8h-3.8z" />
		<path id="Layer" class="shp0" d="M1054.6,465.7c-0.3,11.5 -0.9,29.7 -1.2,40.5l-0.6,19.8h3.4h3.5l0.6,-13.7c0.4,-7.5 0.7,-20.9 0.8,-29.7l0.1,-16.1l7.5,29.7l7.5,29.8h2.9c2.4,0 3,-0.5 3.8,-3.8c0.6,-2 3.8,-15 7.3,-28.7l6.3,-25l0.6,13.5c0.4,7.4 0.7,20.4 0.8,28.7l0.1,15.3h3.6h3.6l-0.6,-31.7c-0.3,-17.5 -0.9,-35.7 -1.2,-40.6l-0.6,-8.7h-3.8h-3.8l-7.6,31.2c-4.2,17.2 -7.6,31.9 -7.6,32.5c0,0.7 -0.4,1.3 -1,1.3c-0.5,0 -1,-0.6 -1,-1.3c0,-0.6 -3.4,-15.3 -7.6,-32.5l-7.6,-31.2h-3.8h-3.8z" />
		<path id="Layer" class="shp0" d="M1158,445h12.5c10.6,0 13.2,0.3 16.5,2c5.8,3 8.4,8.5 8.4,18c0,8.2 -1.6,12.4 -5.8,15.7l-2.4,1.9l3,1.7c4.6,2.6 7.2,9.6 7.1,19.4c0,9.7 -2.8,16.5 -8.2,20c-3.1,2.1 -4.6,2.3 -17.2,2.3h-13.9zM1172.8,451.2l-6.8,-0.5v29.6l7.4,-0.6c8.9,-0.6 11.3,-1.8 13.2,-6.2c3.1,-7.5 1.2,-17.5 -4,-20.2c-1.7,-0.9 -6.1,-1.8 -9.8,-2.1zM1172.8,486h-6.8v34h6.9c8.7,0 11.6,-1.1 14.1,-5.2c3,-5 2.9,-18.2 -0.3,-22.9c-1.2,-1.8 -3.4,-3.9 -4.7,-4.6c-1.4,-0.7 -5.5,-1.3 -9.2,-1.3z" />
		<path id="Layer" class="shp0" d="M1258.6,448.2c-0.3,1.8 -1.2,13.9 -2.1,26.8c-1.8,25.6 -3.5,37.8 -5.9,41.5c-1,1.4 -3,2.7 -5.1,3.1c-3.1,0.5 -3.5,1 -3.5,3.6v3l5.7,-0.4c9.1,-0.8 11.9,-5.1 14.3,-21.7c1.1,-7.7 4,-44 4,-49.9v-3.2h8.5h8.5v37.5v37.5h4h4v-40.5v-40.5h-16h-15.9z" />
		<path id="Layer" class="shp0" d="M1316,485.5v40.5h3.3h3.3l12.4,-30.9l12.5,-30.9l0.3,30.9l0.2,30.9h3.5h3.5v-40.5v-40.5h-3.3h-3.3l-12.4,30.6l-12.5,30.6l-0.3,-30.6l-0.2,-30.6h-3.5h-3.5z" />
		<path id="Layer" class="shp0" d="M1441,485.5v40.5h15h15v-3v-3h-11h-11v-16.5v-16.5h9h9v-3v-3h-9h-9v-15v-15h11h11v-3v-3h-15h-15z" />
		<path id="Layer" class="shp0" d="M1491,485.5v40.5h4h4v-19.5v-19.5h12.5h12.5v19.5v19.5h4h4v-40.5v-40.5h-4h-4v18v18h-12.5h-12.5v-18v-18h-4h-4z" />
		<path id="Layer" class="shp0" d="M1557,485.5v40.5h4h4v-19.5v-19.5h2.8c2.5,0.1 3.3,1.3 11.9,19.3l9.2,19.2l4.5,0.3l4.6,0.3l-9.6,-19.8c-5.3,-10.9 -9.8,-20.5 -10.1,-21.4c-0.2,-0.8 3.4,-10 8.1,-20.3c4.7,-10.4 8.6,-19 8.6,-19.2c0,-0.2 -1.9,-0.4 -4.3,-0.4h-4.3l-8.1,18.2c-7.3,16.6 -8.3,18.3 -10.7,18.6l-2.6,0.3v-18.5v-18.6h-4h-4z" />
		<path id="Layer" class="shp0" d="M1201,519.5v6.5h6.5h6.5v-6.5v-6.5h-6.5h-6.5z" />
		<path id="Layer" class="shp0" d="M1111,519.5v6.5h6.5h6.5v-6.5v-6.5h-6.5h-6.5z" />
		<path id="Layer" class="shp0" d="M1006,519.5v6.5h7h7v-6.5v-6.5h-7h-7z" />
		<path id="Layer" class="shp0" d="M1632.5,445c3.6,0 4.4,0.4 4.8,2.2c0.8,2.9 16.7,78 16.7,78.5c0,0.2 -1.9,0.3 -4.2,0.1l-4.2,-0.3l-1.3,-7c-0.7,-3.9 -1.5,-8.5 -1.8,-10.3l-0.6,-3.2h-18.7l-1.9,10.2l-1.9,10.3l-4.3,0.3c-4.1,0.3 -4.3,0.2 -3.8,-2c0.3,-1.3 4,-18.5 8.2,-38.3c4.2,-19.8 7.8,-37 8.2,-38.3c0.4,-1.8 1.2,-2.2 4.8,-2.2zM1636.2,475.7l-3.7,-18.9l-3.8,19.9c-2.1,10.9 -3.7,20.1 -3.7,20.5c0,0.5 3.4,0.8 7.5,0.8c6.5,0 7.5,-0.2 7.5,-1.8c-0.1,-0.9 -1.7,-10.2 -3.8,-20.5z" />
	</g>
</svg>